<svg version="1.1" id="Layer_1" xmlns="http://www.w3.org/2000/svg" xmlns:xlink="http://www.w3.org/1999/xlink" x="0px" y="0px"
	 width="100%" viewBox="0 0 500 500" enable-background="new 0 0 500 500" xml:space="preserve">
<path fill="#FFFEFE" opacity="1.000000" stroke="none" 
	d="
M501.000000,292.000000 
	C501.000000,361.633575 501.000000,431.267120 501.000000,500.950348 
	C334.445618,500.950348 167.891235,500.950348 1.000000,500.950348 
	C1.000000,431.645599 1.000000,362.290649 1.467854,292.467987 
	C168.290466,292.000183 334.645233,292.000092 501.000000,292.000000 
M197.661896,342.836426 
	C215.640121,359.620575 233.618362,376.404724 251.817657,393.395264 
	C284.021790,363.333130 315.940033,333.537842 348.328613,303.303528 
	C283.687561,303.303528 219.921387,303.303528 155.282639,303.303528 
	C169.676086,316.724579 183.415604,329.535889 197.661896,342.836426 
M251.843201,407.013336 
	C248.147903,407.577148 244.585983,409.096893 244.246307,413.005707 
	C243.998749,415.854431 245.722061,418.874390 246.386337,421.189301 
	C245.276871,423.723389 243.299759,426.464661 243.105270,429.327057 
	C242.982086,431.140015 245.220581,434.406830 246.913910,434.798401 
	C251.346039,435.823181 256.060364,435.627472 260.911133,435.933990 
	C260.911133,430.807220 260.911133,427.165344 260.911133,423.616608 
	C262.350281,422.900024 263.604889,422.275330 264.253601,421.952301 
	C262.840576,419.752869 261.891296,418.152435 260.806732,416.649597 
	C260.393677,416.077209 259.663239,415.367401 259.090088,415.378418 
	C258.496979,415.389862 257.634460,416.087921 257.399445,416.685913 
	C257.017761,417.656952 257.051514,418.791199 256.890015,420.006500 
	C253.117554,419.629700 248.513428,421.148987 247.980011,415.729736 
	C247.193588,407.740448 254.177948,410.729553 258.218933,409.607513 
	C258.230042,409.111450 258.241150,408.615417 258.252258,408.119354 
	C256.396088,407.738007 254.539886,407.356659 251.843201,407.013336 
M90.506447,416.721100 
	C89.343719,413.936157 89.283104,411.275879 92.604660,410.185883 
	C95.487717,409.239807 98.121086,409.860321 99.848587,412.899139 
	C100.491539,414.030182 101.878815,414.738129 102.926682,415.639008 
	C103.265511,415.292755 103.604332,414.946503 103.943153,414.600250 
	C103.482864,413.386749 103.190475,412.072205 102.531967,410.977966 
	C100.220009,407.136200 96.532921,406.330444 92.550575,407.271118 
	C88.937851,408.124420 86.182098,410.270264 86.022682,414.419250 
	C85.851341,418.878204 88.739258,420.863983 92.500504,422.099030 
	C94.384850,422.717773 96.585884,423.057068 97.981346,424.279144 
	C99.270981,425.408447 100.504616,427.695831 100.235146,429.199371 
	C99.972771,430.663300 97.637794,432.944794 96.451981,432.807129 
	C93.967079,432.518677 91.588921,430.972382 89.267242,429.751801 
	C88.013870,429.092896 86.967430,428.040405 85.827637,427.165466 
	C85.101357,428.942780 85.170677,429.776428 85.505615,430.484406 
	C87.512321,434.726349 92.310738,437.025665 97.207619,435.831360 
	C100.972321,434.913208 103.943214,432.980316 104.175140,428.517639 
	C104.457977,423.075134 100.996132,420.974731 96.518654,419.594788 
	C94.643677,419.016968 92.880791,418.075409 90.506447,416.721100 
M289.785858,407.277679 
	C288.962006,407.180908 288.137299,406.993927 287.314484,407.002136 
	C282.255463,407.052612 278.588226,409.603546 278.088348,413.625366 
	C277.475067,418.559540 280.469116,420.852997 284.694397,422.146790 
	C286.274963,422.630737 288.245483,422.829163 289.272125,423.895386 
	C290.700378,425.378662 292.471680,427.791321 292.122101,429.368622 
	C291.779877,430.912598 288.926819,432.938934 287.240540,432.880676 
	C285.175812,432.809387 283.161469,430.818481 281.158203,429.603363 
	C279.964020,428.878998 278.832886,428.050659 276.621765,426.560120 
	C278.625549,434.042969 282.056000,436.573608 287.925751,435.961914 
	C291.993530,435.537994 295.340820,433.873505 296.082550,429.308014 
	C296.880890,424.393707 294.614716,421.613922 288.319672,419.555634 
	C287.688965,419.349396 286.866272,419.351166 286.449432,418.937347 
	C284.846100,417.345703 282.975952,415.808319 282.065002,413.850677 
	C281.748627,413.170715 284.063873,410.146790 284.938873,410.248291 
	C287.272369,410.518860 289.550598,411.765381 291.702667,412.903992 
	C292.894501,413.534576 293.789215,414.726868 294.817841,415.665985 
	C295.408386,415.059082 295.998962,414.452179 296.589508,413.845276 
	C294.566406,411.760956 292.543335,409.676605 289.785858,407.277679 
M204.781235,435.700348 
	C208.098755,434.526428 210.504822,432.588348 210.948318,427.660980 
	C209.192459,428.658691 207.577393,429.015686 207.097000,429.953766 
	C205.613083,432.851379 203.108475,434.156586 200.595215,432.793976 
	C198.553162,431.686829 197.395172,428.949188 195.845123,426.934631 
	C196.172134,426.501953 196.499130,426.069305 196.826141,425.636627 
	C201.558212,425.636627 206.290283,425.636627 210.961166,425.636627 
	C211.343903,419.116150 210.146103,415.056885 206.387863,414.141357 
	C203.373428,413.407043 199.431396,413.787415 196.702438,415.210236 
	C192.684845,417.304901 191.468567,424.529663 193.369568,429.769836 
	C195.171204,434.736084 198.882416,436.581177 204.781235,435.700348 
M115.718445,436.012024 
	C120.637527,435.971375 124.309547,434.314178 125.562439,427.757568 
	C123.745811,428.574677 122.225197,428.760742 121.856003,429.512390 
	C120.387688,432.501617 117.975906,434.253326 115.112061,432.803284 
	C113.039963,431.754120 111.829391,429.003479 110.234619,427.011597 
	C110.562057,426.533936 110.889496,426.056274 111.216927,425.578613 
	C116.056465,425.578613 120.895996,425.578613 125.904556,425.578613 
	C125.838509,420.273285 125.279999,415.883179 120.381882,413.705383 
	C116.643425,412.043243 113.184525,412.930603 110.344841,415.737152 
	C104.148163,421.861450 106.698997,432.979126 115.718445,436.012024 
M307.802368,413.037384 
	C298.267365,413.804779 297.078430,426.449524 300.954712,431.978912 
	C304.598938,437.177307 313.174011,437.560883 316.969788,432.461487 
	C320.121948,428.226807 320.100067,423.431366 318.210999,418.699585 
	C316.515961,414.453949 312.996216,412.904968 307.802368,413.037384 
M380.962708,415.313416 
	C380.190521,416.375458 379.235565,417.349609 378.675751,418.513763 
	C374.947083,426.267944 378.890167,435.193054 386.369232,435.952240 
	C390.903961,436.412567 394.517181,434.821381 396.653656,430.636871 
	C399.049500,425.944489 398.153656,419.087463 394.823578,415.755798 
	C391.504272,412.434937 387.113586,412.134918 380.962708,415.313416 
M419.893280,419.167297 
	C418.955750,414.318085 415.771973,412.766632 411.162811,412.979340 
	C408.719757,413.092041 406.476776,416.100555 403.859192,413.503693 
	C403.304321,414.338257 402.293945,415.159546 402.269196,416.009491 
	C402.119080,421.167358 402.051025,426.339050 402.312958,431.487946 
	C402.365784,432.525909 403.953979,433.485779 405.514099,435.250732 
	C405.929321,428.986389 405.935333,424.473755 406.624451,420.067963 
	C407.077118,417.173767 409.433868,415.048492 412.418854,416.139893 
	C414.061890,416.740662 415.782379,419.100311 416.107025,420.911011 
	C416.715393,424.303802 416.138397,427.893219 416.478149,431.359314 
	C416.587280,432.472748 418.029541,433.455505 418.861938,434.498047 
	C419.228455,434.172668 419.595001,433.847290 419.961517,433.521912 
	C419.961517,429.030579 419.961517,424.539215 419.893280,419.167297 
M343.362915,435.809448 
	C345.767670,435.416046 348.172394,435.022675 351.030243,434.555176 
	C351.030243,428.460571 351.111267,422.178680 350.926147,415.904633 
	C350.903381,415.132935 349.458466,414.403198 348.196350,413.200073 
	C347.741730,419.103638 347.854523,423.996643 346.768311,428.607178 
	C346.335297,430.445160 343.399658,432.622314 341.342316,432.936554 
	C338.054657,433.438690 337.026154,430.545898 337.008301,427.586914 
	C336.981354,423.120880 337.001251,418.654541 337.001251,414.188354 
	C336.550720,413.970612 336.100189,413.752899 335.649658,413.535156 
	C334.960297,414.519531 333.744354,415.469025 333.676514,416.494537 
	C333.435486,420.136749 333.507721,423.806946 333.605164,427.462708 
	C333.778717,433.974670 335.681305,435.735626 343.362915,435.809448 
M224.657135,427.114471 
	C226.654510,428.638611 227.889496,430.860382 225.364716,432.275970 
	C223.872055,433.112885 221.139648,432.252899 219.175446,431.559265 
	C217.797333,431.072601 216.774796,429.579010 215.593475,428.535095 
	C214.753113,430.147614 214.751831,430.828949 214.995041,431.407501 
	C216.816025,435.738983 220.618225,436.808655 224.453476,435.676849 
	C226.662201,435.025085 229.322708,432.569153 229.895905,430.422302 
	C231.002045,426.279358 227.636383,424.308044 224.128708,423.044708 
	C223.348633,422.763763 222.381775,422.678253 221.829742,422.155487 
	C220.735550,421.119171 219.583221,419.954865 219.048935,418.607849 
	C218.828156,418.051270 220.201553,416.102875 220.736420,416.147491 
	C222.382248,416.284821 224.056320,416.913666 225.559967,417.668945 
	C226.821213,418.302399 227.858826,419.381104 228.995453,420.262665 
	C229.335083,419.901184 229.674713,419.539703 230.014359,419.178192 
	C229.471558,418.007263 229.209305,416.151031 228.333862,415.792603 
	C225.598999,414.672974 222.534683,413.310120 219.791397,413.641602 
	C218.072937,413.849243 215.226288,417.221924 215.506470,418.666077 
	C215.977997,421.096619 218.388931,423.260681 220.280884,425.255249 
	C221.110107,426.129425 222.670135,426.310333 224.657135,427.114471 
M431.886444,422.467987 
	C430.686951,421.088684 429.364227,419.785797 428.413605,418.252197 
	C428.261353,418.006561 429.963074,415.946014 430.482361,416.071442 
	C432.210876,416.489044 433.801514,417.499786 435.424683,418.323181 
	C436.501984,418.869720 437.544647,419.484619 439.429871,420.525604 
	C438.643707,414.854401 435.732086,412.597992 431.775055,413.217499 
	C429.324432,413.601135 426.090088,415.679504 425.192413,417.826813 
	C423.544128,421.769867 426.533325,424.204224 430.175568,425.536987 
	C430.641998,425.707672 431.201294,425.767548 431.558868,426.067780 
	C433.086792,427.350739 434.688416,428.598083 435.916840,430.135223 
	C436.126648,430.397766 434.470184,432.931946 433.980103,432.837524 
	C431.943542,432.445221 429.999146,431.503448 428.069519,430.653076 
	C426.843048,430.112579 425.702026,429.378235 423.762970,428.313782 
	C424.977203,434.626343 428.492645,436.713226 433.033630,435.763763 
	C435.483093,435.251587 438.814819,432.977814 439.415558,430.842529 
	C440.690063,426.312195 437.079773,424.113800 433.101074,422.910736 
	C432.941986,422.862610 432.780029,422.823975 431.886444,422.467987 
M187.980484,415.506836 
	C184.005692,412.113068 179.835175,411.986023 175.743927,415.115906 
	C171.932770,418.031586 170.752289,424.924164 172.823151,430.305145 
	C174.403641,434.411804 177.426483,436.279663 181.725662,435.976562 
	C186.141769,435.665222 189.023209,433.465088 190.190018,427.749054 
	C188.253067,428.798401 187.146942,429.424316 186.017029,430.003876 
	C184.007187,431.034729 181.596115,433.233368 180.066147,432.738464 
	C178.296005,432.165833 176.813843,429.373260 176.104294,427.245178 
	C175.462097,425.319153 175.478058,422.774353 176.214325,420.899231 
	C176.965103,418.987183 178.727997,416.596283 180.455627,416.201965 
	C182.035873,415.841309 184.198090,417.804626 186.032974,418.866272 
	C187.216751,419.551208 188.272720,420.457031 189.385971,421.263855 
	C189.712128,420.860718 190.038284,420.457581 190.364441,420.054474 
	C189.724655,418.749268 189.084885,417.444092 187.980484,415.506836 
M143.721390,421.877686 
	C145.103745,425.593719 146.369843,429.360352 147.950150,432.990204 
	C148.345947,433.899353 149.752136,434.892670 150.693588,434.892303 
	C151.628983,434.891937 153.055695,433.886627 153.419586,432.981415 
	C155.871429,426.881897 158.097870,420.691833 160.522995,414.194336 
	C159.365524,414.118652 157.986435,413.807678 157.878525,414.053864 
	C155.420609,419.661346 153.101593,425.329681 150.548996,431.487488 
	C148.724792,426.211914 147.231262,421.367279 145.316818,416.695160 
	C144.783371,415.393250 143.005081,414.601471 141.797867,413.575653 
	C141.524353,413.944824 141.250824,414.314026 140.977310,414.683197 
	C141.772110,416.848114 142.566910,419.013000 143.721390,421.877686 
M357.346619,414.797913 
	C356.729095,415.646027 356.111572,416.494110 355.494049,417.342194 
	C359.086639,417.965973 357.685730,420.794952 357.802277,422.827728 
	C357.972900,425.803253 357.707428,428.805359 357.907410,431.777313 
	C358.197479,436.088562 360.863190,437.118469 364.864410,434.554718 
	C357.566711,430.434113 362.768463,423.640411 360.976288,418.622803 
	C362.721527,417.677917 364.025635,416.971863 365.478790,416.185120 
	C363.545410,414.965820 362.153900,414.376404 361.173492,413.381744 
	C360.339142,412.535370 359.978363,411.222168 359.408112,410.115479 
	C358.871460,411.438049 358.334808,412.760651 357.346619,414.797913 
M130.678467,418.855499 
	C130.678909,423.319550 130.555832,427.789520 130.769714,432.243317 
	C130.820892,433.309052 131.994308,434.320892 132.651581,435.357513 
	C133.106979,435.106567 133.562378,434.855621 134.017776,434.604645 
	C134.017776,430.983917 133.989075,427.362854 134.026459,423.742523 
	C134.058945,420.595825 134.723328,417.929138 138.295059,416.760284 
	C139.193100,416.466400 139.630371,414.764496 140.279404,413.709686 
	C139.874680,413.364380 139.469955,413.019073 139.065231,412.673798 
	C137.436081,413.613159 135.768097,415.391754 134.185806,415.318512 
	C130.818085,415.162628 130.836334,414.768341 130.678467,418.855499 
M323.794250,409.659180 
	C323.799530,416.655029 323.697845,423.653168 323.848663,430.645874 
	C323.944885,435.106812 325.370483,435.787842 328.797943,434.217041 
	C328.177826,431.493805 327.227234,429.034241 327.127777,426.540680 
	C326.889069,420.553711 327.106812,414.549652 326.985443,408.555603 
	C326.968109,407.698334 326.090576,406.858490 325.611145,406.010590 
	C325.005676,406.905731 324.400208,407.800873 323.794250,409.659180 
M163.981171,419.640137 
	C163.981171,424.731384 163.981171,429.822662 163.981171,434.989197 
	C168.191879,434.318115 168.464767,433.002655 167.548584,417.152924 
	C167.477539,415.924042 166.221344,414.763641 165.515976,413.571381 
	C165.004379,413.807892 164.492767,414.044403 163.981171,414.280914 
	C163.981171,415.747437 163.981171,417.213928 163.981171,419.640137 
M372.997528,421.563416 
	C372.997528,419.135986 372.997528,416.708588 372.997528,414.281158 
	C372.632202,414.081085 372.266876,413.881012 371.901550,413.680908 
	C371.170502,414.474884 369.833221,415.248688 369.806061,416.066071 
	C369.619781,421.667236 369.640900,427.279297 369.791534,432.882568 
	C369.810730,433.596649 370.967957,434.280151 371.597961,434.977783 
	C372.063690,434.295624 372.903564,433.628601 372.931885,432.928741 
	C373.071686,429.471008 372.996735,426.004608 372.997528,421.563416 
z"/>
<path fill="#FFFFFF" opacity="1.000000" stroke="none" 
	d="
M1.000000,159.000000 
	C1.000000,106.361572 1.000000,53.723148 1.000000,1.042360 
	C167.549057,1.042360 334.098114,1.042360 501.000000,1.042360 
	C501.000000,53.353699 501.000000,105.708191 500.532288,158.519058 
	C333.709686,158.983612 167.354843,158.991806 1.000000,159.000000 
M334.147125,134.358200 
	C306.752533,108.810852 279.357941,83.263504 251.797775,57.561737 
	C219.622223,87.599998 187.727783,117.375832 155.321609,147.629395 
	C220.156082,147.629395 283.934601,147.629395 348.275330,147.629395 
	C343.398529,143.052887 339.026978,138.950500 334.147125,134.358200 
z"/>
<path fill="#0F456B" opacity="1.000000" stroke="none" 
	d="
M1.000000,159.467850 
	C167.354843,158.991806 333.709686,158.983612 500.532288,158.987717 
	C501.000000,203.021439 501.000000,247.042862 501.000000,291.532166 
	C334.645233,292.000092 168.290466,292.000183 1.467854,292.000122 
	C1.000000,247.978561 1.000000,203.957138 1.000000,159.467850 
M304.123779,234.256958 
	C301.263123,222.876480 298.402496,211.496002 295.595215,200.327850 
	C291.013123,200.327850 286.975830,200.327850 282.440063,200.327850 
	C288.483734,219.196976 294.381134,237.609406 300.206818,255.797913 
	C305.110962,255.797913 309.408813,255.797913 313.741852,255.797913 
	C317.342529,241.427704 320.895996,227.246094 324.449432,213.064484 
	C324.799408,213.082504 325.149414,213.100510 325.499390,213.118530 
	C329.028656,227.365616 332.557892,241.612717 336.074585,255.809143 
	C340.733734,255.809143 345.025299,255.809143 349.529724,255.809143 
	C355.447693,237.269775 361.327393,218.850189 367.302673,200.131241 
	C362.895477,200.131241 359.089050,200.131241 354.947754,200.131241 
	C351.235748,214.707840 347.525879,229.276062 343.816010,243.844284 
	C343.551117,243.849411 343.286224,243.854538 343.021332,243.859665 
	C339.394257,229.261078 335.767151,214.662476 332.155792,200.127090 
	C327.185608,200.127090 322.709229,200.127090 317.974335,200.127090 
	C314.486847,214.528625 311.014954,228.865768 307.543060,243.202896 
	C307.205688,243.163177 306.868317,243.123459 306.530914,243.083755 
	C305.797516,240.408051 305.064117,237.732346 304.123779,234.256958 
M172.550781,231.007111 
	C182.979019,231.007111 193.407242,231.007111 203.975632,231.007111 
	C203.975632,227.585342 204.167053,224.761032 203.944931,221.969635 
	C202.368729,202.161682 182.866150,191.663376 165.614685,201.510895 
	C153.638000,208.347443 150.889923,219.646912 151.879837,232.387451 
	C153.148788,248.719238 165.210480,258.640930 181.484833,256.849823 
	C193.190674,255.561508 201.455353,248.256714 202.783447,237.749588 
	C201.329514,237.673828 199.876907,237.654465 198.436417,237.512268 
	C194.442307,237.118042 191.493484,237.453979 189.569351,242.204147 
	C188.507904,244.824585 184.556610,247.184921 181.491226,247.917038 
	C171.190231,250.377258 163.989822,243.224030 164.154495,231.007111 
	C166.620911,231.007111 169.096130,231.007111 172.550781,231.007111 
M418.874329,255.405472 
	C418.585388,248.759247 418.199921,242.115433 418.034698,235.466141 
	C417.869202,228.806458 418.082550,222.135422 417.836639,215.480209 
	C417.596100,208.970291 415.459229,203.119858 409.019684,200.414902 
	C400.508881,196.839905 391.754242,196.765244 383.463226,201.171829 
	C377.393463,204.397888 374.147247,209.638245 373.988220,216.660156 
	C378.064850,216.660156 381.645416,216.660156 385.112915,216.660156 
	C387.707184,208.069824 391.635345,205.448776 399.368256,206.887894 
	C405.203461,207.973846 406.783722,211.372772 405.723206,221.213516 
	C404.001312,221.213516 402.169647,220.957932 400.434845,221.259521 
	C394.248260,222.335022 387.824493,222.855652 381.993408,224.972000 
	C373.779388,227.953278 370.251495,235.752762 371.881561,244.432785 
	C373.182373,251.359268 379.183533,256.359497 387.401276,256.865662 
	C394.353821,257.293915 401.214203,256.932678 406.089417,249.846298 
	C406.808441,252.326340 407.331512,254.130585 407.855316,255.937271 
	C411.472168,255.937271 414.798584,255.937271 418.874329,255.405472 
M59.508419,256.209930 
	C72.664360,253.071777 80.243340,243.246902 80.847847,228.546951 
	C81.399124,215.141418 74.689903,204.084274 63.457497,199.886826 
	C51.515560,195.424225 37.072216,198.801163 30.140848,207.676453 
	C22.719749,217.178818 21.734034,233.335083 27.923285,244.023010 
	C33.757816,254.098389 45.008320,258.628632 59.508419,256.209930 
M429.827637,199.990509 
	C428.681335,199.990509 427.535065,199.990509 425.970703,199.990509 
	C426.670715,201.901230 427.208069,203.439896 427.795166,204.959381 
	C434.204224,221.546356 440.755707,238.080872 446.885040,254.770462 
	C447.766113,257.169556 447.277985,260.574036 446.285278,263.058380 
	C443.924774,268.965607 438.356140,269.342041 432.958862,269.156830 
	C432.958862,272.286133 432.958862,274.989807 432.958862,277.650940 
	C445.303925,278.843262 451.534760,275.527222 456.889313,265.084137 
	C458.024994,262.869202 459.027496,260.573761 459.926025,258.251404 
	C466.941620,240.118149 473.922455,221.971405 480.891113,203.820007 
	C481.327026,202.684448 481.570282,201.474915 481.990784,199.990479 
	C479.676758,199.990479 477.802948,200.259506 476.035645,199.939697 
	C470.878540,199.006485 469.007935,201.359161 467.595886,206.175583 
	C463.683167,219.521637 459.071503,232.662766 454.358337,247.036865 
	C448.973450,230.692368 443.943298,215.424637 438.858337,199.990479 
	C436.035187,199.990479 433.377808,199.990479 429.827637,199.990509 
M141.271591,239.498276 
	C141.194977,231.339615 141.321213,223.172638 140.986282,215.024582 
	C140.631393,206.391754 135.811752,200.675369 127.376503,198.863846 
	C117.799461,196.807098 108.977539,197.601288 103.179794,207.818375 
	C103.010063,204.565308 102.883751,202.144470 102.759888,199.770569 
	C98.752739,199.770569 95.168663,199.770569 91.466599,199.770569 
	C91.466599,218.522263 91.466599,236.930450 91.466599,255.505661 
	C95.421349,255.505661 99.113335,255.505661 103.013779,255.505661 
	C103.013779,246.318314 102.603714,237.473038 103.169121,228.690536 
	C103.502907,223.505829 104.711990,218.136429 106.738068,213.364044 
	C109.153542,207.674362 114.621704,205.780624 121.029152,207.005676 
	C126.095695,207.974365 129.010986,211.323242 129.340179,217.893250 
	C129.773056,226.532837 129.652893,235.200745 129.740479,243.856766 
	C129.780090,247.773071 129.747208,251.690109 129.747208,255.614197 
	C133.942642,255.614197 137.366837,255.614197 141.271637,255.614197 
	C141.271637,250.409027 141.271637,245.452911 141.271591,239.498276 
M256.805756,227.397736 
	C256.712677,225.980072 256.619629,224.562408 256.533783,223.254822 
	C248.595215,223.254822 241.156036,223.254822 233.610367,223.254822 
	C233.610367,225.588577 233.610367,227.642700 233.610367,230.007950 
	C240.732193,230.007950 247.544174,230.065506 254.352463,229.932938 
	C255.175110,229.916916 255.977737,228.873596 256.805756,227.397736 
z"/>
<path fill="#F22B0B" opacity="1.000000" stroke="none" 
	d="
M197.408508,342.591797 
	C183.415604,329.535889 169.676086,316.724579 155.282639,303.303528 
	C219.921387,303.303528 283.687561,303.303528 348.328613,303.303528 
	C315.940033,333.537842 284.021790,363.333130 251.817657,393.395264 
	C233.618362,376.404724 215.640121,359.620575 197.408508,342.591797 
z"/>
<path fill="#1B1B1B" opacity="1.000000" stroke="none" 
	d="
M252.263458,406.994324 
	C254.539886,407.356659 256.396088,407.738007 258.252258,408.119354 
	C258.241150,408.615417 258.230042,409.111450 258.218933,409.607513 
	C254.177948,410.729553 247.193588,407.740448 247.980011,415.729736 
	C248.513428,421.148987 253.117554,419.629700 256.890015,420.006500 
	C257.051514,418.791199 257.017761,417.656952 257.399445,416.685913 
	C257.634460,416.087921 258.496979,415.389862 259.090088,415.378418 
	C259.663239,415.367401 260.393677,416.077209 260.806732,416.649597 
	C261.891296,418.152435 262.840576,419.752869 264.253601,421.952301 
	C263.604889,422.275330 262.350281,422.900024 260.911133,423.616608 
	C260.911133,427.165344 260.911133,430.807220 260.911133,435.933990 
	C256.060364,435.627472 251.346039,435.823181 246.913910,434.798401 
	C245.220581,434.406830 242.982086,431.140015 243.105270,429.327057 
	C243.299759,426.464661 245.276871,423.723389 246.386337,421.189301 
	C245.722061,418.874390 243.998749,415.854431 244.246307,413.005707 
	C244.585983,409.096893 248.147903,407.577148 252.263458,406.994324 
M251.919312,433.126434 
	C253.648926,433.126434 255.378525,433.126434 256.991516,433.126434 
	C256.991516,429.290070 256.991516,426.222687 256.991516,422.952820 
	C252.906586,423.140167 248.395996,421.861816 246.915298,427.054016 
	C246.021805,430.187134 247.536255,432.506927 251.919312,433.126434 
z"/>
<path fill="#121212" opacity="1.000000" stroke="none" 
	d="
M90.786697,417.010162 
	C92.880791,418.075409 94.643677,419.016968 96.518654,419.594788 
	C100.996132,420.974731 104.457977,423.075134 104.175140,428.517639 
	C103.943214,432.980316 100.972321,434.913208 97.207619,435.831360 
	C92.310738,437.025665 87.512321,434.726349 85.505615,430.484406 
	C85.170677,429.776428 85.101357,428.942780 85.827637,427.165466 
	C86.967430,428.040405 88.013870,429.092896 89.267242,429.751801 
	C91.588921,430.972382 93.967079,432.518677 96.451981,432.807129 
	C97.637794,432.944794 99.972771,430.663300 100.235146,429.199371 
	C100.504616,427.695831 99.270981,425.408447 97.981346,424.279144 
	C96.585884,423.057068 94.384850,422.717773 92.500504,422.099030 
	C88.739258,420.863983 85.851341,418.878204 86.022682,414.419250 
	C86.182098,410.270264 88.937851,408.124420 92.550575,407.271118 
	C96.532921,406.330444 100.220009,407.136200 102.531967,410.977966 
	C103.190475,412.072205 103.482864,413.386749 103.943153,414.600250 
	C103.604332,414.946503 103.265511,415.292755 102.926682,415.639008 
	C101.878815,414.738129 100.491539,414.030182 99.848587,412.899139 
	C98.121086,409.860321 95.487717,409.239807 92.604660,410.185883 
	C89.283104,411.275879 89.343719,413.936157 90.786697,417.010162 
z"/>
<path fill="#121212" opacity="1.000000" stroke="none" 
	d="
M290.153046,407.434998 
	C292.543335,409.676605 294.566406,411.760956 296.589508,413.845276 
	C295.998962,414.452179 295.408386,415.059082 294.817841,415.665985 
	C293.789215,414.726868 292.894501,413.534576 291.702667,412.903992 
	C289.550598,411.765381 287.272369,410.518860 284.938873,410.248291 
	C284.063873,410.146790 281.748627,413.170715 282.065002,413.850677 
	C282.975952,415.808319 284.846100,417.345703 286.449432,418.937347 
	C286.866272,419.351166 287.688965,419.349396 288.319672,419.555634 
	C294.614716,421.613922 296.880890,424.393707 296.082550,429.308014 
	C295.340820,433.873505 291.993530,435.537994 287.925751,435.961914 
	C282.056000,436.573608 278.625549,434.042969 276.621765,426.560120 
	C278.832886,428.050659 279.964020,428.878998 281.158203,429.603363 
	C283.161469,430.818481 285.175812,432.809387 287.240540,432.880676 
	C288.926819,432.938934 291.779877,430.912598 292.122101,429.368622 
	C292.471680,427.791321 290.700378,425.378662 289.272125,423.895386 
	C288.245483,422.829163 286.274963,422.630737 284.694397,422.146790 
	C280.469116,420.852997 277.475067,418.559540 278.088348,413.625366 
	C278.588226,409.603546 282.255463,407.052612 287.314484,407.002136 
	C288.137299,406.993927 288.962006,407.180908 290.153046,407.434998 
z"/>
<path fill="#181818" opacity="1.000000" stroke="none" 
	d="
M204.391418,435.785034 
	C198.882416,436.581177 195.171204,434.736084 193.369568,429.769836 
	C191.468567,424.529663 192.684845,417.304901 196.702438,415.210236 
	C199.431396,413.787415 203.373428,413.407043 206.387863,414.141357 
	C210.146103,415.056885 211.343903,419.116150 210.961166,425.636627 
	C206.290283,425.636627 201.558212,425.636627 196.826141,425.636627 
	C196.499130,426.069305 196.172134,426.501953 195.845123,426.934631 
	C197.395172,428.949188 198.553162,431.686829 200.595215,432.793976 
	C203.108475,434.156586 205.613083,432.851379 207.097000,429.953766 
	C207.577393,429.015686 209.192459,428.658691 210.948318,427.660980 
	C210.504822,432.588348 208.098755,434.526428 204.391418,435.785034 
M196.867706,420.993774 
	C197.296402,421.647125 197.696808,422.842499 198.158325,422.866547 
	C201.339371,423.032440 204.533157,422.953796 207.722855,422.953796 
	C208.003296,422.462921 208.283752,421.972046 208.564209,421.481171 
	C206.825943,419.626648 205.410721,416.970673 203.272354,416.108704 
	C200.199493,414.869995 198.089264,417.170502 196.867706,420.993774 
z"/>
<path fill="#1B1B1B" opacity="1.000000" stroke="none" 
	d="
M115.315582,435.984039 
	C106.698997,432.979126 104.148163,421.861450 110.344841,415.737152 
	C113.184525,412.930603 116.643425,412.043243 120.381882,413.705383 
	C125.279999,415.883179 125.838509,420.273285 125.904556,425.578613 
	C120.895996,425.578613 116.056465,425.578613 111.216927,425.578613 
	C110.889496,426.056274 110.562057,426.533936 110.234619,427.011597 
	C111.829391,429.003479 113.039963,431.754120 115.112061,432.803284 
	C117.975906,434.253326 120.387688,432.501617 121.856003,429.512390 
	C122.225197,428.760742 123.745811,428.574677 125.562439,427.757568 
	C124.309547,434.314178 120.637527,435.971375 115.315582,435.984039 
M115.772118,415.942810 
	C113.942604,417.879242 112.113098,419.815643 110.283585,421.752045 
	C110.622726,422.079376 110.961876,422.406677 111.301018,422.734009 
	C114.852592,422.734009 118.404167,422.734009 122.072090,422.734009 
	C121.939171,418.845795 120.994415,415.936127 115.772118,415.942810 
z"/>
<path fill="#141414" opacity="1.000000" stroke="none" 
	d="
M308.206665,413.016296 
	C312.996216,412.904968 316.515961,414.453949 318.210999,418.699585 
	C320.100067,423.431366 320.121948,428.226807 316.969788,432.461487 
	C313.174011,437.560883 304.598938,437.177307 300.954712,431.978912 
	C297.078430,426.449524 298.267365,413.804779 308.206665,413.016296 
M314.479431,429.847778 
	C314.809998,428.741974 315.619629,427.519775 315.384369,426.551453 
	C314.569031,423.195801 313.800995,419.691528 312.112335,416.764587 
	C311.570282,415.825073 306.988403,415.690216 306.406189,416.585815 
	C304.653473,419.281952 303.937286,422.659027 302.880005,425.791840 
	C302.734833,426.222015 302.777557,426.889343 303.023193,427.248718 
	C304.352081,429.192932 305.473297,432.208588 307.240936,432.674683 
	C309.198761,433.190887 311.776428,431.356201 314.479431,429.847778 
z"/>
<path fill="#141414" opacity="1.000000" stroke="none" 
	d="
M381.273041,415.082275 
	C387.113586,412.134918 391.504272,412.434937 394.823578,415.755798 
	C398.153656,419.087463 399.049500,425.944489 396.653656,430.636871 
	C394.517181,434.821381 390.903961,436.412567 386.369232,435.952240 
	C378.890167,435.193054 374.947083,426.267944 378.675751,418.513763 
	C379.235565,417.349609 380.190521,416.375458 381.273041,415.082275 
M394.105377,424.495453 
	C393.512421,418.023468 391.341797,415.363892 387.007050,415.798248 
	C382.990387,416.200714 380.349884,420.912476 381.303253,426.316010 
	C381.583954,427.906952 382.149872,429.577881 383.042206,430.904755 
	C385.213379,434.133087 390.218384,434.179291 392.289551,430.904419 
	C393.296143,429.312866 393.495483,427.210724 394.105377,424.495453 
z"/>
<path fill="#232323" opacity="1.000000" stroke="none" 
	d="
M419.927399,419.607605 
	C419.961517,424.539215 419.961517,429.030579 419.961517,433.521912 
	C419.595001,433.847290 419.228455,434.172668 418.861938,434.498047 
	C418.029541,433.455505 416.587280,432.472748 416.478149,431.359314 
	C416.138397,427.893219 416.715393,424.303802 416.107025,420.911011 
	C415.782379,419.100311 414.061890,416.740662 412.418854,416.139893 
	C409.433868,415.048492 407.077118,417.173767 406.624451,420.067963 
	C405.935333,424.473755 405.929321,428.986389 405.514099,435.250732 
	C403.953979,433.485779 402.365784,432.525909 402.312958,431.487946 
	C402.051025,426.339050 402.119080,421.167358 402.269196,416.009491 
	C402.293945,415.159546 403.304321,414.338257 403.859192,413.503693 
	C406.476776,416.100555 408.719757,413.092041 411.162811,412.979340 
	C415.771973,412.766632 418.955750,414.318085 419.927399,419.607605 
z"/>
<path fill="#0A0A0A" opacity="1.000000" stroke="none" 
	d="
M342.932068,435.861267 
	C335.681305,435.735626 333.778717,433.974670 333.605164,427.462708 
	C333.507721,423.806946 333.435486,420.136749 333.676514,416.494537 
	C333.744354,415.469025 334.960297,414.519531 335.649658,413.535156 
	C336.100189,413.752899 336.550720,413.970612 337.001251,414.188354 
	C337.001251,418.654541 336.981354,423.120880 337.008301,427.586914 
	C337.026154,430.545898 338.054657,433.438690 341.342316,432.936554 
	C343.399658,432.622314 346.335297,430.445160 346.768311,428.607178 
	C347.854523,423.996643 347.741730,419.103638 348.196350,413.200073 
	C349.458466,414.403198 350.903381,415.132935 350.926147,415.904633 
	C351.111267,422.178680 351.030243,428.460571 351.030243,434.555176 
	C348.172394,435.022675 345.767670,435.416046 342.932068,435.861267 
z"/>
<path fill="#171717" opacity="1.000000" stroke="none" 
	d="
M224.277725,426.960266 
	C222.670135,426.310333 221.110107,426.129425 220.280884,425.255249 
	C218.388931,423.260681 215.977997,421.096619 215.506470,418.666077 
	C215.226288,417.221924 218.072937,413.849243 219.791397,413.641602 
	C222.534683,413.310120 225.598999,414.672974 228.333862,415.792603 
	C229.209305,416.151031 229.471558,418.007263 230.014359,419.178192 
	C229.674713,419.539703 229.335083,419.901184 228.995453,420.262665 
	C227.858826,419.381104 226.821213,418.302399 225.559967,417.668945 
	C224.056320,416.913666 222.382248,416.284821 220.736420,416.147491 
	C220.201553,416.102875 218.828156,418.051270 219.048935,418.607849 
	C219.583221,419.954865 220.735550,421.119171 221.829742,422.155487 
	C222.381775,422.678253 223.348633,422.763763 224.128708,423.044708 
	C227.636383,424.308044 231.002045,426.279358 229.895905,430.422302 
	C229.322708,432.569153 226.662201,435.025085 224.453476,435.676849 
	C220.618225,436.808655 216.816025,435.738983 214.995041,431.407501 
	C214.751831,430.828949 214.753113,430.147614 215.593475,428.535095 
	C216.774796,429.579010 217.797333,431.072601 219.175446,431.559265 
	C221.139648,432.252899 223.872055,433.112885 225.364716,432.275970 
	C227.889496,430.860382 226.654510,428.638611 224.277725,426.960266 
z"/>
<path fill="#161616" opacity="1.000000" stroke="none" 
	d="
M432.252930,422.624451 
	C432.780029,422.823975 432.941986,422.862610 433.101074,422.910736 
	C437.079773,424.113800 440.690063,426.312195 439.415558,430.842529 
	C438.814819,432.977814 435.483093,435.251587 433.033630,435.763763 
	C428.492645,436.713226 424.977203,434.626343 423.762970,428.313782 
	C425.702026,429.378235 426.843048,430.112579 428.069519,430.653076 
	C429.999146,431.503448 431.943542,432.445221 433.980103,432.837524 
	C434.470184,432.931946 436.126648,430.397766 435.916840,430.135223 
	C434.688416,428.598083 433.086792,427.350739 431.558868,426.067780 
	C431.201294,425.767548 430.641998,425.707672 430.175568,425.536987 
	C426.533325,424.204224 423.544128,421.769867 425.192413,417.826813 
	C426.090088,415.679504 429.324432,413.601135 431.775055,413.217499 
	C435.732086,412.597992 438.643707,414.854401 439.429871,420.525604 
	C437.544647,419.484619 436.501984,418.869720 435.424683,418.323181 
	C433.801514,417.499786 432.210876,416.489044 430.482361,416.071442 
	C429.963074,415.946014 428.261353,418.006561 428.413605,418.252197 
	C429.364227,419.785797 430.686951,421.088684 432.252930,422.624451 
z"/>
<path fill="#1A1A1A" opacity="1.000000" stroke="none" 
	d="
M188.212799,415.822876 
	C189.084885,417.444092 189.724655,418.749268 190.364441,420.054474 
	C190.038284,420.457581 189.712128,420.860718 189.385971,421.263855 
	C188.272720,420.457031 187.216751,419.551208 186.032974,418.866272 
	C184.198090,417.804626 182.035873,415.841309 180.455627,416.201965 
	C178.727997,416.596283 176.965103,418.987183 176.214325,420.899231 
	C175.478058,422.774353 175.462097,425.319153 176.104294,427.245178 
	C176.813843,429.373260 178.296005,432.165833 180.066147,432.738464 
	C181.596115,433.233368 184.007187,431.034729 186.017029,430.003876 
	C187.146942,429.424316 188.253067,428.798401 190.190018,427.749054 
	C189.023209,433.465088 186.141769,435.665222 181.725662,435.976562 
	C177.426483,436.279663 174.403641,434.411804 172.823151,430.305145 
	C170.752289,424.924164 171.932770,418.031586 175.743927,415.115906 
	C179.835175,411.986023 184.005692,412.113068 188.212799,415.822876 
z"/>
<path fill="#161616" opacity="1.000000" stroke="none" 
	d="
M143.541550,421.527802 
	C142.566910,419.013000 141.772110,416.848114 140.977310,414.683197 
	C141.250824,414.314026 141.524353,413.944824 141.797867,413.575653 
	C143.005081,414.601471 144.783371,415.393250 145.316818,416.695160 
	C147.231262,421.367279 148.724792,426.211914 150.548996,431.487488 
	C153.101593,425.329681 155.420609,419.661346 157.878525,414.053864 
	C157.986435,413.807678 159.365524,414.118652 160.522995,414.194336 
	C158.097870,420.691833 155.871429,426.881897 153.419586,432.981415 
	C153.055695,433.886627 151.628983,434.891937 150.693588,434.892303 
	C149.752136,434.892670 148.345947,433.899353 147.950150,432.990204 
	C146.369843,429.360352 145.103745,425.593719 143.541550,421.527802 
z"/>
<path fill="#0D0D0D" opacity="1.000000" stroke="none" 
	d="
M357.572388,414.440552 
	C358.334808,412.760651 358.871460,411.438049 359.408112,410.115479 
	C359.978363,411.222168 360.339142,412.535370 361.173492,413.381744 
	C362.153900,414.376404 363.545410,414.965820 365.478790,416.185120 
	C364.025635,416.971863 362.721527,417.677917 360.976288,418.622803 
	C362.768463,423.640411 357.566711,430.434113 364.864410,434.554718 
	C360.863190,437.118469 358.197479,436.088562 357.907410,431.777313 
	C357.707428,428.805359 357.972900,425.803253 357.802277,422.827728 
	C357.685730,420.794952 359.086639,417.965973 355.494049,417.342194 
	C356.111572,416.494110 356.729095,415.646027 357.572388,414.440552 
z"/>
<path fill="#080808" opacity="1.000000" stroke="none" 
	d="
M130.678528,418.406738 
	C130.836334,414.768341 130.818085,415.162628 134.185806,415.318512 
	C135.768097,415.391754 137.436081,413.613159 139.065231,412.673798 
	C139.469955,413.019073 139.874680,413.364380 140.279404,413.709686 
	C139.630371,414.764496 139.193100,416.466400 138.295059,416.760284 
	C134.723328,417.929138 134.058945,420.595825 134.026459,423.742523 
	C133.989075,427.362854 134.017776,430.983917 134.017776,434.604645 
	C133.562378,434.855621 133.106979,435.106567 132.651581,435.357513 
	C131.994308,434.320892 130.820892,433.309052 130.769714,432.243317 
	C130.555832,427.789520 130.678909,423.319550 130.678528,418.406738 
z"/>
<path fill="#050505" opacity="1.000000" stroke="none" 
	d="
M323.794495,409.177582 
	C324.400208,407.800873 325.005676,406.905731 325.611145,406.010590 
	C326.090576,406.858490 326.968109,407.698334 326.985443,408.555603 
	C327.106812,414.549652 326.889069,420.553711 327.127777,426.540680 
	C327.227234,429.034241 328.177826,431.493805 328.797943,434.217041 
	C325.370483,435.787842 323.944885,435.106812 323.848663,430.645874 
	C323.697845,423.653168 323.799530,416.655029 323.794495,409.177582 
z"/>
<path fill="#292929" opacity="1.000000" stroke="none" 
	d="
M163.981171,419.160278 
	C163.981171,417.213928 163.981171,415.747437 163.981171,414.280914 
	C164.492767,414.044403 165.004379,413.807892 165.515976,413.571381 
	C166.221344,414.763641 167.477539,415.924042 167.548584,417.152924 
	C168.464767,433.002655 168.191879,434.318115 163.981171,434.989197 
	C163.981171,429.822662 163.981171,424.731384 163.981171,419.160278 
z"/>
<path fill="#010101" opacity="1.000000" stroke="none" 
	d="
M372.997528,422.052338 
	C372.996735,426.004608 373.071686,429.471008 372.931885,432.928741 
	C372.903564,433.628601 372.063690,434.295624 371.597961,434.977783 
	C370.967957,434.280151 369.810730,433.596649 369.791534,432.882568 
	C369.640900,427.279297 369.619781,421.667236 369.806061,416.066071 
	C369.833221,415.248688 371.170502,414.474884 371.901550,413.680908 
	C372.266876,413.881012 372.632202,414.081085 372.997528,414.281158 
	C372.997528,416.708588 372.997528,419.135986 372.997528,422.052338 
z"/>
<path fill="#F22B0B" opacity="1.000000" stroke="none" 
	d="
M334.401276,134.603149 
	C339.026978,138.950500 343.398529,143.052887 348.275330,147.629395 
	C283.934601,147.629395 220.156082,147.629395 155.321609,147.629395 
	C187.727783,117.375832 219.622223,87.599998 251.797775,57.561737 
	C279.357941,83.263504 306.752533,108.810852 334.401276,134.603149 
z"/>
<path fill="#FAFBFC" opacity="1.000000" stroke="none" 
	d="
M304.227234,234.656799 
	C305.064117,237.732346 305.797516,240.408051 306.530914,243.083755 
	C306.868317,243.123459 307.205688,243.163177 307.543060,243.202896 
	C311.014954,228.865768 314.486847,214.528625 317.974335,200.127090 
	C322.709229,200.127090 327.185608,200.127090 332.155792,200.127090 
	C335.767151,214.662476 339.394257,229.261078 343.021332,243.859665 
	C343.286224,243.854538 343.551117,243.849411 343.816010,243.844284 
	C347.525879,229.276062 351.235748,214.707840 354.947754,200.131241 
	C359.089050,200.131241 362.895477,200.131241 367.302673,200.131241 
	C361.327393,218.850189 355.447693,237.269775 349.529724,255.809143 
	C345.025299,255.809143 340.733734,255.809143 336.074585,255.809143 
	C332.557892,241.612717 329.028656,227.365616 325.499390,213.118530 
	C325.149414,213.100510 324.799408,213.082504 324.449432,213.064484 
	C320.895996,227.246094 317.342529,241.427704 313.741852,255.797913 
	C309.408813,255.797913 305.110962,255.797913 300.206818,255.797913 
	C294.381134,237.609406 288.483734,219.196976 282.440063,200.327850 
	C286.975830,200.327850 291.013123,200.327850 295.595215,200.327850 
	C298.402496,211.496002 301.263123,222.876480 304.227234,234.656799 
z"/>
<path fill="#FBFCFC" opacity="1.000000" stroke="none" 
	d="
M172.061066,231.007111 
	C169.096130,231.007111 166.620911,231.007111 164.154495,231.007111 
	C163.989822,243.224030 171.190231,250.377258 181.491226,247.917038 
	C184.556610,247.184921 188.507904,244.824585 189.569351,242.204147 
	C191.493484,237.453979 194.442307,237.118042 198.436417,237.512268 
	C199.876907,237.654465 201.329514,237.673828 202.783447,237.749588 
	C201.455353,248.256714 193.190674,255.561508 181.484833,256.849823 
	C165.210480,258.640930 153.148788,248.719238 151.879837,232.387451 
	C150.889923,219.646912 153.638000,208.347443 165.614685,201.510895 
	C182.866150,191.663376 202.368729,202.161682 203.944931,221.969635 
	C204.167053,224.761032 203.975632,227.585342 203.975632,231.007111 
	C193.407242,231.007111 182.979019,231.007111 172.061066,231.007111 
M170.636139,222.913345 
	C177.715286,222.913345 184.794434,222.913345 191.873062,222.913345 
	C191.622818,212.583313 186.796097,206.729080 178.906433,206.595963 
	C170.426315,206.452896 164.495575,212.916367 164.241791,222.913330 
	C166.057281,222.913330 167.870331,222.913330 170.636139,222.913345 
z"/>
<path fill="#F9FAFB" opacity="1.000000" stroke="none" 
	d="
M418.499664,255.671371 
	C414.798584,255.937271 411.472168,255.937271 407.855316,255.937271 
	C407.331512,254.130585 406.808441,252.326340 406.089417,249.846298 
	C401.214203,256.932678 394.353821,257.293915 387.401276,256.865662 
	C379.183533,256.359497 373.182373,251.359268 371.881561,244.432785 
	C370.251495,235.752762 373.779388,227.953278 381.993408,224.972000 
	C387.824493,222.855652 394.248260,222.335022 400.434845,221.259521 
	C402.169647,220.957932 404.001312,221.213516 405.723206,221.213516 
	C406.783722,211.372772 405.203461,207.973846 399.368256,206.887894 
	C391.635345,205.448776 387.707184,208.069824 385.112915,216.660156 
	C381.645416,216.660156 378.064850,216.660156 373.988220,216.660156 
	C374.147247,209.638245 377.393463,204.397888 383.463226,201.171829 
	C391.754242,196.765244 400.508881,196.839905 409.019684,200.414902 
	C415.459229,203.119858 417.596100,208.970291 417.836639,215.480209 
	C418.082550,222.135422 417.869202,228.806458 418.034698,235.466141 
	C418.199921,242.115433 418.585388,248.759247 418.499664,255.671371 
M406.074860,229.650131 
	C399.901337,228.077423 393.950226,228.687347 388.344086,231.713745 
	C384.691132,233.685745 383.074707,237.196976 384.114655,240.940323 
	C384.817017,243.468353 386.825684,246.556763 389.071442,247.565094 
	C396.781464,251.026810 404.903381,245.976166 405.973480,237.558929 
	C406.265228,235.264069 406.142365,232.916504 406.074860,229.650131 
z"/>
<path fill="#F9FAFB" opacity="1.000000" stroke="none" 
	d="
M59.092430,256.308136 
	C45.008320,258.628632 33.757816,254.098389 27.923285,244.023010 
	C21.734034,233.335083 22.719749,217.178818 30.140848,207.676453 
	C37.072216,198.801163 51.515560,195.424225 63.457497,199.886826 
	C74.689903,204.084274 81.399124,215.141418 80.847847,228.546951 
	C80.243340,243.246902 72.664360,253.071777 59.092430,256.308136 
M36.362656,231.840439 
	C36.658672,233.304535 36.862717,234.794479 37.266052,236.228394 
	C39.433449,243.933746 44.973663,248.405106 52.286579,248.418442 
	C59.485062,248.431580 65.424370,244.439346 66.837807,236.616745 
	C67.953255,230.443314 67.850830,223.701874 66.624733,217.544128 
	C65.191353,210.345428 59.286633,206.638687 52.419304,206.601013 
	C45.413616,206.562592 40.082573,210.080658 37.976521,217.289703 
	C36.702976,221.649078 36.781300,226.403397 36.362656,231.840439 
z"/>
<path fill="#FAFBFC" opacity="1.000000" stroke="none" 
	d="
M430.274048,199.990494 
	C433.377808,199.990479 436.035187,199.990479 438.858337,199.990479 
	C443.943298,215.424637 448.973450,230.692368 454.358337,247.036865 
	C459.071503,232.662766 463.683167,219.521637 467.595886,206.175583 
	C469.007935,201.359161 470.878540,199.006485 476.035645,199.939697 
	C477.802948,200.259506 479.676758,199.990479 481.990784,199.990479 
	C481.570282,201.474915 481.327026,202.684448 480.891113,203.820007 
	C473.922455,221.971405 466.941620,240.118149 459.926025,258.251404 
	C459.027496,260.573761 458.024994,262.869202 456.889313,265.084137 
	C451.534760,275.527222 445.303925,278.843262 432.958862,277.650940 
	C432.958862,274.989807 432.958862,272.286133 432.958862,269.156830 
	C438.356140,269.342041 443.924774,268.965607 446.285278,263.058380 
	C447.277985,260.574036 447.766113,257.169556 446.885040,254.770462 
	C440.755707,238.080872 434.204224,221.546356 427.795166,204.959381 
	C427.208069,203.439896 426.670715,201.901230 425.970703,199.990509 
	C427.535065,199.990509 428.681335,199.990509 430.274048,199.990494 
z"/>
<path fill="#F8FAFB" opacity="1.000000" stroke="none" 
	d="
M141.271606,239.997543 
	C141.271637,245.452911 141.271637,250.409027 141.271637,255.614197 
	C137.366837,255.614197 133.942642,255.614197 129.747208,255.614197 
	C129.747208,251.690109 129.780090,247.773071 129.740479,243.856766 
	C129.652893,235.200745 129.773056,226.532837 129.340179,217.893250 
	C129.010986,211.323242 126.095695,207.974365 121.029152,207.005676 
	C114.621704,205.780624 109.153542,207.674362 106.738068,213.364044 
	C104.711990,218.136429 103.502907,223.505829 103.169121,228.690536 
	C102.603714,237.473038 103.013779,246.318314 103.013779,255.505661 
	C99.113335,255.505661 95.421349,255.505661 91.466599,255.505661 
	C91.466599,236.930450 91.466599,218.522263 91.466599,199.770569 
	C95.168663,199.770569 98.752739,199.770569 102.759888,199.770569 
	C102.883751,202.144470 103.010063,204.565308 103.179794,207.818375 
	C108.977539,197.601288 117.799461,196.807098 127.376503,198.863846 
	C135.811752,200.675369 140.631393,206.391754 140.986282,215.024582 
	C141.321213,223.172638 141.194977,231.339615 141.271606,239.997543 
z"/>
<path fill="#F8FAFB" opacity="1.000000" stroke="none" 
	d="
M256.797699,227.852081 
	C255.977737,228.873596 255.175110,229.916916 254.352463,229.932938 
	C247.544174,230.065506 240.732193,230.007950 233.610367,230.007950 
	C233.610367,227.642700 233.610367,225.588577 233.610367,223.254822 
	C241.156036,223.254822 248.595215,223.254822 256.533783,223.254822 
	C256.619629,224.562408 256.712677,225.980072 256.797699,227.852081 
z"/>
<path fill="#FCFCFC" opacity="1.000000" stroke="none" 
	d="
M251.478485,433.084656 
	C247.536255,432.506927 246.021805,430.187134 246.915298,427.054016 
	C248.395996,421.861816 252.906586,423.140167 256.991516,422.952820 
	C256.991516,426.222687 256.991516,429.290070 256.991516,433.126434 
	C255.378525,433.126434 253.648926,433.126434 251.478485,433.084656 
z"/>
<path fill="#F8F8F8" opacity="1.000000" stroke="none" 
	d="
M196.944519,420.566284 
	C198.089264,417.170502 200.199493,414.869995 203.272354,416.108704 
	C205.410721,416.970673 206.825943,419.626648 208.564209,421.481171 
	C208.283752,421.972046 208.003296,422.462921 207.722855,422.953796 
	C204.533157,422.953796 201.339371,423.032440 198.158325,422.866547 
	C197.696808,422.842499 197.296402,421.647125 196.944519,420.566284 
z"/>
<path fill="#F8F8F8" opacity="1.000000" stroke="none" 
	d="
M116.171165,415.887085 
	C120.994415,415.936127 121.939171,418.845795 122.072090,422.734009 
	C118.404167,422.734009 114.852592,422.734009 111.301018,422.734009 
	C110.961876,422.406677 110.622726,422.079376 110.283585,421.752045 
	C112.113098,419.815643 113.942604,417.879242 116.171165,415.887085 
z"/>
<path fill="#F8F8F8" opacity="1.000000" stroke="none" 
	d="
M314.281799,430.196533 
	C311.776428,431.356201 309.198761,433.190887 307.240936,432.674683 
	C305.473297,432.208588 304.352081,429.192932 303.023193,427.248718 
	C302.777557,426.889343 302.734833,426.222015 302.880005,425.791840 
	C303.937286,422.659027 304.653473,419.281952 306.406189,416.585815 
	C306.988403,415.690216 311.570282,415.825073 312.112335,416.764587 
	C313.800995,419.691528 314.569031,423.195801 315.384369,426.551453 
	C315.619629,427.519775 314.809998,428.741974 314.281799,430.196533 
z"/>
<path fill="#F8F8F8" opacity="1.000000" stroke="none" 
	d="
M394.082825,424.917603 
	C393.495483,427.210724 393.296143,429.312866 392.289551,430.904419 
	C390.218384,434.179291 385.213379,434.133087 383.042206,430.904755 
	C382.149872,429.577881 381.583954,427.906952 381.303253,426.316010 
	C380.349884,420.912476 382.990387,416.200714 387.007050,415.798248 
	C391.341797,415.363892 393.512421,418.023468 394.082825,424.917603 
z"/>
<path fill="#14496E" opacity="1.000000" stroke="none" 
	d="
M170.159760,222.913330 
	C167.870331,222.913330 166.057281,222.913330 164.241791,222.913330 
	C164.495575,212.916367 170.426315,206.452896 178.906433,206.595963 
	C186.796097,206.729080 191.622818,212.583313 191.873062,222.913345 
	C184.794434,222.913345 177.715286,222.913345 170.159760,222.913330 
z"/>
<path fill="#12476C" opacity="1.000000" stroke="none" 
	d="
M406.142303,230.121628 
	C406.142365,232.916504 406.265228,235.264069 405.973480,237.558929 
	C404.903381,245.976166 396.781464,251.026810 389.071442,247.565094 
	C386.825684,246.556763 384.817017,243.468353 384.114655,240.940323 
	C383.074707,237.196976 384.691132,233.685745 388.344086,231.713745 
	C393.950226,228.687347 399.901337,228.077423 406.142303,230.121628 
z"/>
<path fill="#11466C" opacity="1.000000" stroke="none" 
	d="
M36.307442,231.410339 
	C36.781300,226.403397 36.702976,221.649078 37.976521,217.289703 
	C40.082573,210.080658 45.413616,206.562592 52.419304,206.601013 
	C59.286633,206.638687 65.191353,210.345428 66.624733,217.544128 
	C67.850830,223.701874 67.953255,230.443314 66.837807,236.616745 
	C65.424370,244.439346 59.485062,248.431580 52.286579,248.418442 
	C44.973663,248.405106 39.433449,243.933746 37.266052,236.228394 
	C36.862717,234.794479 36.658672,233.304535 36.307442,231.410339 
z"/>
</svg>