<svg version="1.1" id="Layer_1" xmlns="http://www.w3.org/2000/svg" xmlns:xlink="http://www.w3.org/1999/xlink" x="0px" y="0px"
	 width="100%" viewBox="0 0 500 500" enable-background="new 0 0 500 500" xml:space="preserve">
<path fill="#FFFFFF" opacity="1.000000" stroke="none" 
	d="
M1.000000,184.000000 
	C1.000000,123.030815 1.000000,62.061634 1.000000,1.046227 
	C167.551636,1.046227 334.103271,1.046227 501.000000,1.046227 
	C501.000000,61.687126 501.000000,122.374901 500.533569,183.583069 
	C334.542023,184.113617 169.016876,184.123978 3.491749,184.128433 
	C2.661167,184.128448 1.830583,184.044647 1.000000,184.000000 
M161.098694,167.583893 
	C159.183273,169.336182 157.267853,171.088486 154.670944,173.464218 
	C219.991348,173.464218 284.036652,173.464218 348.643097,173.464218 
	C347.604553,172.376526 347.062347,171.749161 346.459839,171.186340 
	C326.265442,152.321899 306.065918,133.462906 285.865692,114.604706 
	C275.887299,105.289261 265.898621,95.984787 255.931427,86.657341 
	C253.604111,84.479401 251.768250,82.904823 248.490372,85.986259 
	C219.624130,113.122452 190.589035,140.079010 161.098694,167.583893 
z"/>
<path fill="#FFFFFF" opacity="1.000000" stroke="none" 
	d="
M501.000000,318.000000 
	C501.000000,378.969177 501.000000,439.938324 501.000000,500.953735 
	C334.448425,500.953735 167.896851,500.953735 1.000000,500.953735 
	C1.000000,440.312866 1.000000,379.625092 1.466435,318.416931 
	C167.457993,317.886414 332.983124,317.876068 498.508240,317.871643 
	C499.338837,317.871643 500.169403,317.955383 501.000000,318.000000 
M200.484467,371.007935 
	C216.418579,385.897827 232.438492,400.697876 248.211624,415.756378 
	C251.227890,418.635986 253.117249,418.029785 255.670334,415.617584 
	C266.682495,405.213257 277.745178,394.862152 288.822540,384.527191 
	C302.698181,371.581482 316.629059,358.694977 330.489655,345.733246 
	C336.485199,340.126556 342.364532,334.395599 348.610107,328.421265 
	C283.917572,328.421265 219.907944,328.421265 154.766510,328.421265 
	C170.332306,342.916077 185.152115,356.716187 200.484467,371.007935 
z"/>
<path fill="#ABC6C9" opacity="1.000000" stroke="none" 
	d="
M501.000000,317.531342 
	C500.169403,317.955383 499.338837,317.871643 498.508240,317.871643 
	C332.983124,317.876068 167.457993,317.886414 1.466435,317.948273 
	C1.000000,273.645782 1.000000,229.291550 1.000000,184.468658 
	C1.830583,184.044647 2.661167,184.128448 3.491749,184.128433 
	C169.016876,184.123978 334.542023,184.113617 500.533569,184.051727 
	C501.000000,228.354233 501.000000,272.708466 501.000000,317.531342 
M287.964325,242.623596 
	C290.858185,251.641968 293.742645,260.663361 296.648193,269.677948 
	C300.428162,281.405304 300.435455,281.405121 312.645630,280.929321 
	C312.960480,280.917084 313.268433,280.727173 313.800507,280.544098 
	C317.328033,266.490112 320.886047,252.314636 324.444061,238.139175 
	C324.797119,238.161545 325.150208,238.183899 325.503265,238.206268 
	C329.038818,252.442749 332.574371,266.679260 336.071960,280.762939 
	C340.870361,280.762939 345.155701,280.762939 349.549042,280.762939 
	C355.462006,262.247925 361.313416,243.925613 367.182098,225.549225 
	C355.343079,223.653732 355.338043,223.652435 352.527222,234.535706 
	C351.945404,236.788437 351.437775,239.060287 350.859741,241.314026 
	C348.521912,250.428650 346.169922,259.539642 343.823151,268.651978 
	C343.528778,268.618042 343.234406,268.584076 342.940033,268.550140 
	C339.350494,254.072968 335.760956,239.595779 332.173401,225.126526 
	C327.261230,225.126526 322.785095,225.126526 317.982910,225.126526 
	C314.494690,239.486404 311.018036,253.798523 307.541412,268.110657 
	C307.168854,268.059937 306.796326,268.009247 306.423767,267.958527 
	C302.792755,253.701172 299.161713,239.443817 295.565948,225.324860 
	C291.061707,225.324860 287.020599,225.324860 282.466217,225.324860 
	C284.327637,231.134872 286.043884,236.491684 287.964325,242.623596 
M167.264008,225.552765 
	C154.369247,232.226685 150.897110,243.560760 151.849060,256.987671 
	C153.008316,273.338104 164.287979,283.063232 180.593658,281.907654 
	C192.667374,281.052002 201.846954,273.171600 202.687912,262.664124 
	C197.378174,262.671936 191.669510,260.335846 188.963348,268.167358 
	C188.185165,270.419312 184.195480,272.355194 181.362671,272.961578 
	C170.943283,275.191864 163.437698,267.611115 164.401016,255.925903 
	C177.455780,255.925903 190.550201,255.925903 203.571411,255.925903 
	C207.264755,232.358398 189.880997,217.582428 167.264008,225.552765 
M405.311920,246.014816 
	C403.152222,246.092148 400.982361,246.062637 398.834625,246.266190 
	C391.385590,246.972183 383.847534,247.453461 377.652008,252.446808 
	C372.138794,256.890289 370.724792,262.831512 371.932220,269.456970 
	C373.100372,275.867279 377.349365,279.720947 383.518280,281.075104 
	C392.016785,282.940613 400.196350,282.810883 406.554016,274.473114 
	C406.902435,276.857483 407.176819,278.735291 407.451752,280.616638 
	C411.499481,280.616638 415.178619,280.616638 418.009521,280.616638 
	C418.009521,273.411743 418.026276,266.611328 418.004730,259.811066 
	C417.984161,253.323456 418.131927,246.826279 417.829529,240.350876 
	C417.422180,231.629044 413.553162,226.075333 406.136383,224.355820 
	C401.681610,223.323029 396.861694,222.870316 392.332489,223.350586 
	C381.246918,224.526154 374.344513,231.787445 374.117981,241.734726 
	C375.248383,241.819016 376.387787,241.960129 377.529053,241.977493 
	C379.995331,242.014999 382.462555,241.989044 384.975616,241.989044 
	C385.319061,241.079208 385.585632,240.485962 385.769623,239.868134 
	C387.748749,233.222137 391.372406,230.906937 398.466522,231.773209 
	C404.220123,232.475769 405.986450,234.917877 406.123352,242.409256 
	C406.141510,243.402466 406.055237,244.397583 405.311920,246.014816 
M47.995281,281.826355 
	C49.158810,281.884857 50.321877,281.981995 51.485943,281.995972 
	C64.393234,282.151093 73.667252,276.514862 78.207527,265.771973 
	C83.227249,253.894653 80.860306,238.733185 72.743629,230.772995 
	C64.817421,222.999588 50.872246,220.615021 40.125355,225.195435 
	C28.655079,230.084152 22.809423,241.516296 24.055624,256.622437 
	C25.155077,269.949738 33.076397,278.558075 47.995281,281.826355 
M434.312500,224.988968 
	C431.678040,224.988968 429.043610,224.988968 425.984894,224.988968 
	C426.691742,226.953323 427.212006,228.498947 427.800171,230.018295 
	C434.155090,246.434601 440.400665,262.895111 446.973907,279.223663 
	C448.479462,282.963562 448.506836,286.561127 445.760559,288.829437 
	C442.215118,291.757812 437.724304,293.541656 433.640594,295.818329 
	C433.239502,295.424133 432.838409,295.029907 432.437317,294.635681 
	C432.558350,297.327728 432.679413,300.019806 432.796143,302.615875 
	C445.244293,303.882172 451.533081,300.536713 456.887909,290.092987 
	C458.022827,287.879486 459.028107,285.587158 459.926056,283.266479 
	C466.937531,265.146423 473.913940,247.012772 480.877869,228.874390 
	C481.317261,227.729919 481.561432,226.510483 481.991730,224.988937 
	C480.018951,224.988937 478.479187,225.238770 477.051056,224.945435 
	C471.069336,223.716782 468.813293,226.644379 467.229523,232.084641 
	C463.436554,245.113159 458.971405,257.945953 454.476349,271.785217 
	C453.640717,269.518005 453.093872,268.161316 452.637054,266.774933 
	C448.427399,254.000320 444.153534,241.245804 440.099426,228.421875 
	C439.249146,225.732239 438.035034,224.442474 434.312500,224.988968 
M106.463669,227.921097 
	C105.522179,229.375702 104.580688,230.830322 102.872993,233.468735 
	C102.872993,229.623077 102.872993,227.218658 102.872993,224.696091 
	C98.870796,224.696091 95.283981,224.696091 91.578613,224.696091 
	C91.578613,243.525024 91.578613,262.055389 91.578613,280.546265 
	C95.541466,280.546265 99.119553,280.546265 103.014557,280.546265 
	C103.014557,271.408691 102.574471,262.571777 103.177986,253.806686 
	C103.545761,248.465424 104.827225,242.932892 106.958206,238.034378 
	C109.380188,232.466949 115.182480,230.650833 121.434967,232.075958 
	C126.230034,233.168884 128.976730,236.517151 129.312714,242.826218 
	C129.719681,250.468658 129.657135,258.137329 129.742599,265.795227 
	C129.797485,270.712677 129.752899,275.631195 129.752899,280.602417 
	C133.930984,280.602417 137.349411,280.602417 140.876785,280.602417 
	C140.876785,266.214966 141.240173,252.090637 140.712570,237.999664 
	C140.474167,231.632080 136.469879,226.809738 130.196777,224.657990 
	C122.075737,221.872421 114.178902,222.056305 106.463669,227.921097 
M234.953201,254.989243 
	C242.195068,254.989243 249.436935,254.989243 256.532257,254.989243 
	C256.532257,252.268234 256.532257,250.335983 256.532257,248.324432 
	C248.699905,248.324432 241.155106,248.324432 233.008286,248.324432 
	C233.406937,250.759705 233.738388,252.784393 234.953201,254.989243 
z"/>
<path fill="#A6A9D2" opacity="1.000000" stroke="none" 
	d="
M161.351318,167.336319 
	C190.589035,140.079010 219.624130,113.122452 248.490372,85.986259 
	C251.768250,82.904823 253.604111,84.479401 255.931427,86.657341 
	C265.898621,95.984787 275.887299,105.289261 285.865692,114.604706 
	C306.065918,133.462906 326.265442,152.321899 346.459839,171.186340 
	C347.062347,171.749161 347.604553,172.376526 348.643097,173.464218 
	C284.036652,173.464218 219.991348,173.464218 154.670944,173.464218 
	C157.267853,171.088486 159.183273,169.336182 161.351318,167.336319 
z"/>
<path fill="#A6A9D2" opacity="1.000000" stroke="none" 
	d="
M200.228180,370.762146 
	C185.152115,356.716187 170.332306,342.916077 154.766510,328.421265 
	C219.907944,328.421265 283.917572,328.421265 348.610107,328.421265 
	C342.364532,334.395599 336.485199,340.126556 330.489655,345.733246 
	C316.629059,358.694977 302.698181,371.581482 288.822540,384.527191 
	C277.745178,394.862152 266.682495,405.213257 255.670334,415.617584 
	C253.117249,418.029785 251.227890,418.635986 248.211624,415.756378 
	C232.438492,400.697876 216.418579,385.897827 200.228180,370.762146 
z"/>
<path fill="#1A1B1B" opacity="1.000000" stroke="none" 
	d="
M287.862244,242.236053 
	C286.043884,236.491684 284.327637,231.134872 282.466217,225.324860 
	C287.020599,225.324860 291.061707,225.324860 295.565948,225.324860 
	C299.161713,239.443817 302.792755,253.701172 306.423767,267.958527 
	C306.796326,268.009247 307.168854,268.059937 307.541412,268.110657 
	C311.018036,253.798523 314.494690,239.486404 317.982910,225.126526 
	C322.785095,225.126526 327.261230,225.126526 332.173401,225.126526 
	C335.760956,239.595779 339.350494,254.072968 342.940033,268.550140 
	C343.234406,268.584076 343.528778,268.618042 343.823151,268.651978 
	C346.169922,259.539642 348.521912,250.428650 350.859741,241.314026 
	C351.437775,239.060287 351.945404,236.788437 352.527222,234.535706 
	C355.338043,223.652435 355.343079,223.653732 367.182098,225.549225 
	C361.313416,243.925613 355.462006,262.247925 349.549042,280.762939 
	C345.155701,280.762939 340.870361,280.762939 336.071960,280.762939 
	C332.574371,266.679260 329.038818,252.442749 325.503265,238.206268 
	C325.150208,238.183899 324.797119,238.161545 324.444061,238.139175 
	C320.886047,252.314636 317.328033,266.490112 313.800507,280.544098 
	C313.268433,280.727173 312.960480,280.917084 312.645630,280.929321 
	C300.435455,281.405121 300.428162,281.405304 296.648193,269.677948 
	C293.742645,260.663361 290.858185,251.641968 287.862244,242.236053 
z"/>
<path fill="#1A1A1A" opacity="1.000000" stroke="none" 
	d="
M167.598495,225.362366 
	C189.880997,217.582428 207.264755,232.358398 203.571411,255.925903 
	C190.550201,255.925903 177.455780,255.925903 164.401016,255.925903 
	C163.437698,267.611115 170.943283,275.191864 181.362671,272.961578 
	C184.195480,272.355194 188.185165,270.419312 188.963348,268.167358 
	C191.669510,260.335846 197.378174,262.671936 202.687912,262.664124 
	C201.846954,273.171600 192.667374,281.052002 180.593658,281.907654 
	C164.287979,283.063232 153.008316,273.338104 151.849060,256.987671 
	C150.897110,243.560760 154.369247,232.226685 167.598495,225.362366 
M179.490845,247.915436 
	C183.594406,247.915436 187.697952,247.915436 191.791199,247.915436 
	C191.838287,237.244720 186.285233,231.115692 177.556763,231.680527 
	C169.562729,232.197861 163.716064,239.409622 164.626038,247.915405 
	C169.229126,247.915405 173.862808,247.915405 179.490845,247.915436 
z"/>
<path fill="#1B1B1B" opacity="1.000000" stroke="none" 
	d="
M405.664612,245.703308 
	C406.055237,244.397583 406.141510,243.402466 406.123352,242.409256 
	C405.986450,234.917877 404.220123,232.475769 398.466522,231.773209 
	C391.372406,230.906937 387.748749,233.222137 385.769623,239.868134 
	C385.585632,240.485962 385.319061,241.079208 384.975616,241.989044 
	C382.462555,241.989044 379.995331,242.014999 377.529053,241.977493 
	C376.387787,241.960129 375.248383,241.819016 374.117981,241.734726 
	C374.344513,231.787445 381.246918,224.526154 392.332489,223.350586 
	C396.861694,222.870316 401.681610,223.323029 406.136383,224.355820 
	C413.553162,226.075333 417.422180,231.629044 417.829529,240.350876 
	C418.131927,246.826279 417.984161,253.323456 418.004730,259.811066 
	C418.026276,266.611328 418.009521,273.411743 418.009521,280.616638 
	C415.178619,280.616638 411.499481,280.616638 407.451752,280.616638 
	C407.176819,278.735291 406.902435,276.857483 406.554016,274.473114 
	C400.196350,282.810883 392.016785,282.940613 383.518280,281.075104 
	C377.349365,279.720947 373.100372,275.867279 371.932220,269.456970 
	C370.724792,262.831512 372.138794,256.890289 377.652008,252.446808 
	C383.847534,247.453461 391.385590,246.972183 398.834625,246.266190 
	C400.982361,246.062637 403.152222,246.092148 405.664612,245.703308 
M395.198517,254.245728 
	C393.011658,254.993683 390.700714,255.498779 388.663635,256.539795 
	C384.341949,258.748322 383.232117,262.688416 384.102295,267.106720 
	C384.979218,271.559265 388.373199,273.091248 392.553223,273.364685 
	C402.715088,274.029480 408.383698,265.645111 405.438324,254.118332 
	C402.335693,254.118332 399.200409,254.118332 395.198517,254.245728 
z"/>
<path fill="#1B1B1B" opacity="1.000000" stroke="none" 
	d="
M47.561409,281.760834 
	C33.076397,278.558075 25.155077,269.949738 24.055624,256.622437 
	C22.809423,241.516296 28.655079,230.084152 40.125355,225.195435 
	C50.872246,220.615021 64.817421,222.999588 72.743629,230.772995 
	C80.860306,238.733185 83.227249,253.894653 78.207527,265.771973 
	C73.667252,276.514862 64.393234,282.151093 51.485943,281.995972 
	C50.321877,281.981995 49.158810,281.884857 47.561409,281.760834 
M66.973595,262.059052 
	C68.829559,255.152664 69.027382,248.258820 66.407822,241.510269 
	C63.874104,234.982788 58.938953,231.630905 52.312698,231.634338 
	C45.660599,231.637787 40.052380,234.831528 38.319592,241.468933 
	C36.857815,247.068237 36.437202,253.247986 37.057007,259.009308 
	C37.973656,267.529968 43.109791,272.367493 50.070087,273.190277 
	C58.031445,274.131439 62.871738,271.121887 66.973595,262.059052 
z"/>
<path fill="#1A1B1B" opacity="1.000000" stroke="none" 
	d="
M434.762177,224.989014 
	C438.035034,224.442474 439.249146,225.732239 440.099426,228.421875 
	C444.153534,241.245804 448.427399,254.000320 452.637054,266.774933 
	C453.093872,268.161316 453.640717,269.518005 454.476349,271.785217 
	C458.971405,257.945953 463.436554,245.113159 467.229523,232.084641 
	C468.813293,226.644379 471.069336,223.716782 477.051056,224.945435 
	C478.479187,225.238770 480.018951,224.988937 481.991730,224.988937 
	C481.561432,226.510483 481.317261,227.729919 480.877869,228.874390 
	C473.913940,247.012772 466.937531,265.146423 459.926056,283.266479 
	C459.028107,285.587158 458.022827,287.879486 456.887909,290.092987 
	C451.533081,300.536713 445.244293,303.882172 432.796143,302.615875 
	C432.679413,300.019806 432.558350,297.327728 432.437317,294.635681 
	C432.838409,295.029907 433.239502,295.424133 433.640594,295.818329 
	C437.724304,293.541656 442.215118,291.757812 445.760559,288.829437 
	C448.506836,286.561127 448.479462,282.963562 446.973907,279.223663 
	C440.400665,262.895111 434.155090,246.434601 427.800171,230.018295 
	C427.212006,228.498947 426.691742,226.953323 425.984894,224.988968 
	C429.043610,224.988968 431.678040,224.988968 434.762177,224.989014 
z"/>
<path fill="#1B1C1C" opacity="1.000000" stroke="none" 
	d="
M106.702774,227.644196 
	C114.178902,222.056305 122.075737,221.872421 130.196777,224.657990 
	C136.469879,226.809738 140.474167,231.632080 140.712570,237.999664 
	C141.240173,252.090637 140.876785,266.214966 140.876785,280.602417 
	C137.349411,280.602417 133.930984,280.602417 129.752899,280.602417 
	C129.752899,275.631195 129.797485,270.712677 129.742599,265.795227 
	C129.657135,258.137329 129.719681,250.468658 129.312714,242.826218 
	C128.976730,236.517151 126.230034,233.168884 121.434967,232.075958 
	C115.182480,230.650833 109.380188,232.466949 106.958206,238.034378 
	C104.827225,242.932892 103.545761,248.465424 103.177986,253.806686 
	C102.574471,262.571777 103.014557,271.408691 103.014557,280.546265 
	C99.119553,280.546265 95.541466,280.546265 91.578613,280.546265 
	C91.578613,262.055389 91.578613,243.525024 91.578613,224.696091 
	C95.283981,224.696091 98.870796,224.696091 102.872993,224.696091 
	C102.872993,227.218658 102.872993,229.623077 102.872993,233.468735 
	C104.580688,230.830322 105.522179,229.375702 106.702774,227.644196 
z"/>
<path fill="#1B1C1C" opacity="1.000000" stroke="none" 
	d="
M234.511505,254.899170 
	C233.738388,252.784393 233.406937,250.759705 233.008286,248.324432 
	C241.155106,248.324432 248.699905,248.324432 256.532257,248.324432 
	C256.532257,250.335983 256.532257,252.268234 256.532257,254.989243 
	C249.436935,254.989243 242.195068,254.989243 234.511505,254.899170 
z"/>
<path fill="#A7C2C5" opacity="1.000000" stroke="none" 
	d="
M178.993668,247.915421 
	C173.862808,247.915405 169.229126,247.915405 164.626038,247.915405 
	C163.716064,239.409622 169.562729,232.197861 177.556763,231.680527 
	C186.285233,231.115692 191.838287,237.244720 191.791199,247.915436 
	C187.697952,247.915436 183.594406,247.915436 178.993668,247.915421 
z"/>
<path fill="#A9C3C6" opacity="1.000000" stroke="none" 
	d="
M395.631805,254.182037 
	C399.200409,254.118332 402.335693,254.118332 405.438324,254.118332 
	C408.383698,265.645111 402.715088,274.029480 392.553223,273.364685 
	C388.373199,273.091248 384.979218,271.559265 384.102295,267.106720 
	C383.232117,262.688416 384.341949,258.748322 388.663635,256.539795 
	C390.700714,255.498779 393.011658,254.993683 395.631805,254.182037 
z"/>
<path fill="#A9C4C7" opacity="1.000000" stroke="none" 
	d="
M66.857132,262.442017 
	C62.871738,271.121887 58.031445,274.131439 50.070087,273.190277 
	C43.109791,272.367493 37.973656,267.529968 37.057007,259.009308 
	C36.437202,253.247986 36.857815,247.068237 38.319592,241.468933 
	C40.052380,234.831528 45.660599,231.637787 52.312698,231.634338 
	C58.938953,231.630905 63.874104,234.982788 66.407822,241.510269 
	C69.027382,248.258820 68.829559,255.152664 66.857132,262.442017 
z"/>
</svg>