<svg version="1.1" id="Layer_1" xmlns="http://www.w3.org/2000/svg" xmlns:xlink="http://www.w3.org/1999/xlink" x="0px" y="0px"
	 width="100%" viewBox="0 0 500 500" enable-background="new 0 0 500 500" xml:space="preserve">
<path fill="#FFFFFF" opacity="1.000000" stroke="none" 
	d="
M501.000000,292.000000 
	C501.000000,361.633575 501.000000,431.267120 501.000000,500.950348 
	C334.445618,500.950348 167.891235,500.950348 1.000000,500.950348 
	C1.000000,431.645599 1.000000,362.290649 1.467853,292.466980 
	C168.290466,291.998840 334.645233,291.999420 501.000000,292.000000 
M298.942963,349.448212 
	C315.180328,334.278687 331.417725,319.109161 348.430084,303.215637 
	C283.706696,303.215637 220.208282,303.215637 155.206360,303.215637 
	C188.006866,333.833649 219.876343,363.582581 251.805435,393.387177 
	C267.745361,378.536530 283.090912,364.239624 298.942963,349.448212 
z"/>
<path fill="#FFFFFF" opacity="1.000000" stroke="none" 
	d="
M1.000000,159.000000 
	C1.000000,106.361572 1.000000,53.723148 1.000000,1.042360 
	C167.549057,1.042360 334.098114,1.042360 501.000000,1.042360 
	C501.000000,53.353699 501.000000,105.708191 500.532166,158.530670 
	C333.709534,158.999084 167.354767,158.999542 1.000000,159.000000 
M231.164719,76.640656 
	C206.140793,100.092789 181.116867,123.544922 155.473740,147.577377 
	C220.228134,147.577377 283.791870,147.577377 348.312927,147.577377 
	C315.743256,117.191383 283.907562,87.490128 251.863876,57.594845 
	C244.890366,64.039474 238.306488,70.124023 231.164719,76.640656 
z"/>
<path fill="#AAC5C8" opacity="1.000000" stroke="none" 
	d="
M1.000000,159.467850 
	C167.354767,158.999542 333.709534,158.999084 500.532166,158.999329 
	C501.000000,203.021439 501.000000,247.042862 501.000000,291.532166 
	C334.645233,291.999420 168.290466,291.998840 1.467853,291.999146 
	C1.000000,247.978561 1.000000,203.957138 1.000000,159.467850 
M290.104828,224.455368 
	C293.512756,234.983521 296.920715,245.511673 300.234528,255.748901 
	C305.170837,255.748901 309.455841,255.748901 313.740997,255.748901 
	C317.326477,241.500565 320.850830,227.495056 324.375183,213.489532 
	C324.781860,213.529297 325.188538,213.569046 325.595215,213.608795 
	C329.100067,227.704453 332.604950,241.800095 336.077606,255.766266 
	C340.844208,255.766266 345.132812,255.766266 349.546875,255.766266 
	C355.460541,237.250839 361.315674,218.918594 367.280975,200.241455 
	C362.902740,200.241455 359.011749,200.241455 354.903473,200.241455 
	C351.178070,214.898529 347.498383,229.375870 343.818665,243.853210 
	C340.399719,233.275589 337.714996,222.676193 335.115417,212.055954 
	C331.962677,199.175903 331.993774,199.167786 318.689514,200.151932 
	C318.535645,200.163300 318.388336,200.263245 317.881317,200.460800 
	C314.486847,214.509644 311.039642,228.776840 307.592438,243.044052 
	C307.222076,243.052963 306.851746,243.061874 306.481384,243.070801 
	C302.814362,228.739182 299.147308,214.407562 295.503021,200.164902 
	C291.001984,200.164902 287.031250,200.164902 282.436737,200.164902 
	C285.004456,208.223450 287.467102,215.952286 290.104828,224.455368 
M174.526901,231.007050 
	C184.283066,231.007050 194.039215,231.007050 203.945450,231.007050 
	C203.945450,227.411667 204.183228,224.418747 203.903412,221.475021 
	C202.815857,210.033798 195.833206,201.381882 185.867279,198.857910 
	C165.766083,193.767090 149.934906,209.353867 151.863037,232.337204 
	C153.618179,253.258514 175.304459,264.112579 193.112091,252.922043 
	C198.657013,249.437546 202.068436,244.487427 203.134003,237.481842 
	C200.988907,237.481842 199.490555,237.599258 198.016708,237.459076 
	C194.115128,237.087967 191.471756,237.692337 189.612183,242.126846 
	C188.505676,244.765518 184.630432,247.164642 181.574814,247.896576 
	C171.234726,250.373444 164.043991,243.292679 164.138840,231.007050 
	C167.267105,231.007050 170.403488,231.007050 174.526901,231.007050 
M404.369263,221.137253 
	C396.726807,222.419724 388.790283,222.815399 381.521790,225.225616 
	C373.724182,227.811295 370.443451,235.637268 371.823120,243.923798 
	C373.019257,251.108032 378.619080,256.200714 386.863281,256.811188 
	C394.157867,257.351288 401.493134,257.235565 406.488495,249.039505 
	C406.900391,251.839035 407.174774,253.703842 407.459351,255.637878 
	C411.473480,255.637878 415.161682,255.637878 418.007812,255.637878 
	C418.007812,248.621918 418.021210,241.988586 418.003937,235.355316 
	C417.987030,228.867874 418.086029,222.375412 417.862091,215.894562 
	C417.646393,209.651321 416.002075,203.743668 409.831604,200.886703 
	C400.365326,196.503784 390.746216,196.526733 381.767761,202.252792 
	C376.666687,205.506058 373.987091,210.432022 374.113190,216.643585 
	C378.117279,216.643585 381.690308,216.643585 385.149506,216.643585 
	C387.778961,207.805664 392.586029,204.875671 400.396820,207.068466 
	C405.655182,208.544708 407.516327,213.832825 404.369263,221.137253 
M27.049210,242.316162 
	C34.892323,258.618500 54.804222,259.421265 65.391060,254.285782 
	C78.712868,247.823624 84.609566,230.370834 78.682419,215.053299 
	C74.268700,203.646927 64.103294,197.522995 50.432945,198.035019 
	C38.337063,198.488068 28.693357,205.538437 25.427929,216.732834 
	C22.984352,225.109756 23.116863,233.484039 27.049210,242.316162 
M126.566925,210.001404 
	C127.593147,213.941010 129.280777,217.842773 129.508835,221.828049 
	C129.993454,230.297028 129.721649,238.809433 129.753738,247.304062 
	C129.764160,250.060364 129.755371,252.816727 129.755371,255.662384 
	C133.957596,255.662384 137.393005,255.662384 140.803436,255.662384 
	C140.803436,241.158829 141.261307,226.850723 140.608521,212.593475 
	C140.286560,205.561661 135.400681,200.687759 128.392044,199.064011 
	C118.568771,196.788208 109.308914,197.136047 103.187027,207.761322 
	C103.008751,204.534302 102.875237,202.117493 102.744919,199.758514 
	C98.707596,199.758514 95.127342,199.758514 91.479965,199.758514 
	C91.479965,218.530334 91.479965,236.944748 91.479965,255.617828 
	C95.328331,255.617828 98.899094,255.617828 103.009956,255.617828 
	C103.009956,246.811859 102.761040,238.189621 103.110458,229.591690 
	C103.297173,224.997498 103.900360,220.231781 105.396034,215.918106 
	C108.606583,206.658569 117.603119,204.052597 126.566925,210.001404 
M440.591766,237.987900 
	C442.794708,243.727112 445.230896,249.392761 447.076752,255.244629 
	C447.741241,257.351196 447.563080,260.124390 446.770538,262.214630 
	C444.385010,268.505951 438.889252,269.646942 432.409241,269.013092 
	C432.560638,272.328705 432.683533,275.019836 432.802216,277.618225 
	C445.276245,278.869507 451.539276,275.529938 456.896606,265.067902 
	C458.030701,262.853119 459.034180,260.559265 459.932373,258.237823 
	C466.945923,240.111176 473.925079,221.971222 480.890167,203.825897 
	C481.323853,202.696030 481.548737,201.485992 481.959381,199.990585 
	C479.967499,199.990585 478.436157,200.212646 476.992340,199.951248 
	C471.442780,198.946533 468.933228,201.092377 467.354156,206.670929 
	C463.622284,219.855194 459.022461,232.793808 454.370392,247.069016 
	C448.950256,230.616608 443.925201,215.363297 438.948120,200.255722 
	C434.515564,200.255722 430.442932,200.255722 425.965698,200.255722 
	C430.818817,212.847504 435.529907,225.070679 440.591766,237.987900 
M256.811584,227.392670 
	C256.712585,225.977982 256.613617,224.563293 256.522552,223.261963 
	C248.582550,223.261963 241.157974,223.261963 233.616043,223.261963 
	C233.616043,225.590286 233.616043,227.639679 233.616043,230.006165 
	C240.743088,230.006165 247.541672,230.064438 254.336487,229.930710 
	C255.164413,229.914429 255.972031,228.866028 256.811584,227.392670 
z"/>
<path fill="#A5A8D1" opacity="1.000000" stroke="none" 
	d="
M298.689697,349.695465 
	C283.090912,364.239624 267.745361,378.536530 251.805435,393.387177 
	C219.876343,363.582581 188.006866,333.833649 155.206360,303.215637 
	C220.208282,303.215637 283.706696,303.215637 348.430084,303.215637 
	C331.417725,319.109161 315.180328,334.278687 298.689697,349.695465 
z"/>
<path fill="#A5A8D1" opacity="1.000000" stroke="none" 
	d="
M231.443665,76.424614 
	C238.306488,70.124023 244.890366,64.039474 251.863876,57.594845 
	C283.907562,87.490128 315.743256,117.191383 348.312927,147.577377 
	C283.791870,147.577377 220.228134,147.577377 155.473740,147.577377 
	C181.116867,123.544922 206.140793,100.092789 231.443665,76.424614 
z"/>
<path fill="#1A1B1B" opacity="1.000000" stroke="none" 
	d="
M290.017273,224.068237 
	C287.467102,215.952286 285.004456,208.223450 282.436737,200.164902 
	C287.031250,200.164902 291.001984,200.164902 295.503021,200.164902 
	C299.147308,214.407562 302.814362,228.739182 306.481384,243.070801 
	C306.851746,243.061874 307.222076,243.052963 307.592438,243.044052 
	C311.039642,228.776840 314.486847,214.509644 317.881317,200.460800 
	C318.388336,200.263245 318.535645,200.163300 318.689514,200.151932 
	C331.993774,199.167786 331.962677,199.175903 335.115417,212.055954 
	C337.714996,222.676193 340.399719,233.275589 343.818665,243.853210 
	C347.498383,229.375870 351.178070,214.898529 354.903473,200.241455 
	C359.011749,200.241455 362.902740,200.241455 367.280975,200.241455 
	C361.315674,218.918594 355.460541,237.250839 349.546875,255.766266 
	C345.132812,255.766266 340.844208,255.766266 336.077606,255.766266 
	C332.604950,241.800095 329.100067,227.704453 325.595215,213.608795 
	C325.188538,213.569046 324.781860,213.529297 324.375183,213.489532 
	C320.850830,227.495056 317.326477,241.500565 313.740997,255.748901 
	C309.455841,255.748901 305.170837,255.748901 300.234528,255.748901 
	C296.920715,245.511673 293.512756,234.983521 290.017273,224.068237 
z"/>
<path fill="#1A1A1A" opacity="1.000000" stroke="none" 
	d="
M174.033386,231.007050 
	C170.403488,231.007050 167.267105,231.007050 164.138840,231.007050 
	C164.043991,243.292679 171.234726,250.373444 181.574814,247.896576 
	C184.630432,247.164642 188.505676,244.765518 189.612183,242.126846 
	C191.471756,237.692337 194.115128,237.087967 198.016708,237.459076 
	C199.490555,237.599258 200.988907,237.481842 203.134003,237.481842 
	C202.068436,244.487427 198.657013,249.437546 193.112091,252.922043 
	C175.304459,264.112579 153.618179,253.258514 151.863037,232.337204 
	C149.934906,209.353867 165.766083,193.767090 185.867279,198.857910 
	C195.833206,201.381882 202.815857,210.033798 203.903412,221.475021 
	C204.183228,224.418747 203.945450,227.411667 203.945450,231.007050 
	C194.039215,231.007050 184.283066,231.007050 174.033386,231.007050 
M164.672379,218.438538 
	C164.448120,219.812271 164.223862,221.186005 163.984497,222.652313 
	C173.624741,222.652313 182.712128,222.652313 191.793884,222.652313 
	C191.829102,211.379761 185.216400,205.056381 175.509506,206.942871 
	C169.596405,208.092056 166.582764,212.261993 164.672379,218.438538 
z"/>
<path fill="#1B1B1B" opacity="1.000000" stroke="none" 
	d="
M404.837830,221.077805 
	C407.516327,213.832825 405.655182,208.544708 400.396820,207.068466 
	C392.586029,204.875671 387.778961,207.805664 385.149506,216.643585 
	C381.690308,216.643585 378.117279,216.643585 374.113190,216.643585 
	C373.987091,210.432022 376.666687,205.506058 381.767761,202.252792 
	C390.746216,196.526733 400.365326,196.503784 409.831604,200.886703 
	C416.002075,203.743668 417.646393,209.651321 417.862091,215.894562 
	C418.086029,222.375412 417.987030,228.867874 418.003937,235.355316 
	C418.021210,241.988586 418.007812,248.621918 418.007812,255.637878 
	C415.161682,255.637878 411.473480,255.637878 407.459351,255.637878 
	C407.174774,253.703842 406.900391,251.839035 406.488495,249.039505 
	C401.493134,257.235565 394.157867,257.351288 386.863281,256.811188 
	C378.619080,256.200714 373.019257,251.108032 371.823120,243.923798 
	C370.443451,235.637268 373.724182,227.811295 381.521790,225.225616 
	C388.790283,222.815399 396.726807,222.419724 404.837830,221.077805 
M396.095306,248.203964 
	C404.441711,246.037430 407.240265,240.645981 405.699066,228.696014 
	C401.527039,229.057022 397.214996,229.008987 393.097687,229.880722 
	C386.144623,231.352905 383.222382,235.359451 383.954529,241.327576 
	C384.564362,246.298813 387.846283,248.328110 396.095306,248.203964 
z"/>
<path fill="#1B1B1B" opacity="1.000000" stroke="none" 
	d="
M26.923611,241.954239 
	C23.116863,233.484039 22.984352,225.109756 25.427929,216.732834 
	C28.693357,205.538437 38.337063,198.488068 50.432945,198.035019 
	C64.103294,197.522995 74.268700,203.646927 78.682419,215.053299 
	C84.609566,230.370834 78.712868,247.823624 65.391060,254.285782 
	C54.804222,259.421265 34.892323,258.618500 26.923611,241.954239 
M48.207069,207.051300 
	C42.818451,208.622406 39.504448,212.255310 37.754944,217.487000 
	C35.462498,224.342300 35.462593,231.191696 37.947273,237.967148 
	C40.522682,244.990005 45.633675,248.522614 52.667461,248.380203 
	C59.326626,248.245392 64.978142,244.628937 66.562485,237.675827 
	C67.855339,232.001938 68.294250,225.748596 67.362221,220.037720 
	C65.734550,210.064514 59.355179,206.053192 48.207069,207.051300 
z"/>
<path fill="#1B1C1C" opacity="1.000000" stroke="none" 
	d="
M126.284073,209.717819 
	C117.603119,204.052597 108.606583,206.658569 105.396034,215.918106 
	C103.900360,220.231781 103.297173,224.997498 103.110458,229.591690 
	C102.761040,238.189621 103.009956,246.811859 103.009956,255.617828 
	C98.899094,255.617828 95.328331,255.617828 91.479965,255.617828 
	C91.479965,236.944748 91.479965,218.530334 91.479965,199.758514 
	C95.127342,199.758514 98.707596,199.758514 102.744919,199.758514 
	C102.875237,202.117493 103.008751,204.534302 103.187027,207.761322 
	C109.308914,197.136047 118.568771,196.788208 128.392044,199.064011 
	C135.400681,200.687759 140.286560,205.561661 140.608521,212.593475 
	C141.261307,226.850723 140.803436,241.158829 140.803436,255.662384 
	C137.393005,255.662384 133.957596,255.662384 129.755371,255.662384 
	C129.755371,252.816727 129.764160,250.060364 129.753738,247.304062 
	C129.721649,238.809433 129.993454,230.297028 129.508835,221.828049 
	C129.280777,217.842773 127.593147,213.941010 126.284073,209.717819 
z"/>
<path fill="#1A1B1B" opacity="1.000000" stroke="none" 
	d="
M440.416382,237.640884 
	C435.529907,225.070679 430.818817,212.847504 425.965698,200.255722 
	C430.442932,200.255722 434.515564,200.255722 438.948120,200.255722 
	C443.925201,215.363297 448.950256,230.616608 454.370392,247.069016 
	C459.022461,232.793808 463.622284,219.855194 467.354156,206.670929 
	C468.933228,201.092377 471.442780,198.946533 476.992340,199.951248 
	C478.436157,200.212646 479.967499,199.990585 481.959381,199.990585 
	C481.548737,201.485992 481.323853,202.696030 480.890167,203.825897 
	C473.925079,221.971222 466.945923,240.111176 459.932373,258.237823 
	C459.034180,260.559265 458.030701,262.853119 456.896606,265.067902 
	C451.539276,275.529938 445.276245,278.869507 432.802216,277.618225 
	C432.683533,275.019836 432.560638,272.328705 432.409241,269.013092 
	C438.889252,269.646942 444.385010,268.505951 446.770538,262.214630 
	C447.563080,260.124390 447.741241,257.351196 447.076752,255.244629 
	C445.230896,249.392761 442.794708,243.727112 440.416382,237.640884 
z"/>
<path fill="#1B1C1C" opacity="1.000000" stroke="none" 
	d="
M256.800323,227.844315 
	C255.972031,228.866028 255.164413,229.914429 254.336487,229.930710 
	C247.541672,230.064438 240.743088,230.006165 233.616043,230.006165 
	C233.616043,227.639679 233.616043,225.590286 233.616043,223.261963 
	C241.157974,223.261963 248.582550,223.261963 256.522552,223.261963 
	C256.613617,224.563293 256.712585,225.977982 256.800323,227.844315 
z"/>
<path fill="#A7C2C5" opacity="1.000000" stroke="none" 
	d="
M164.787552,218.056519 
	C166.582764,212.261993 169.596405,208.092056 175.509506,206.942871 
	C185.216400,205.056381 191.829102,211.379761 191.793884,222.652313 
	C182.712128,222.652313 173.624741,222.652313 163.984497,222.652313 
	C164.223862,221.186005 164.448120,219.812271 164.787552,218.056519 
z"/>
<path fill="#A9C3C6" opacity="1.000000" stroke="none" 
	d="
M395.668762,248.255493 
	C387.846283,248.328110 384.564362,246.298813 383.954529,241.327576 
	C383.222382,235.359451 386.144623,231.352905 393.097687,229.880722 
	C397.214996,229.008987 401.527039,229.057022 405.699066,228.696014 
	C407.240265,240.645981 404.441711,246.037430 395.668762,248.255493 
z"/>
<path fill="#A9C4C7" opacity="1.000000" stroke="none" 
	d="
M48.629303,206.990555 
	C59.355179,206.053192 65.734550,210.064514 67.362221,220.037720 
	C68.294250,225.748596 67.855339,232.001938 66.562485,237.675827 
	C64.978142,244.628937 59.326626,248.245392 52.667461,248.380203 
	C45.633675,248.522614 40.522682,244.990005 37.947273,237.967148 
	C35.462593,231.191696 35.462498,224.342300 37.754944,217.487000 
	C39.504448,212.255310 42.818451,208.622406 48.629303,206.990555 
z"/>
</svg>