<svg version="1.1" id="Layer_1" xmlns="http://www.w3.org/2000/svg" xmlns:xlink="http://www.w3.org/1999/xlink" x="0px" y="0px"
	 width="100%" viewBox="0 0 500 500" enable-background="new 0 0 500 500" xml:space="preserve">
<path fill="#FFFFFF" opacity="1.000000" stroke="none" 
	d="
M1.000000,184.000000 
	C1.000000,123.030815 1.000000,62.061634 1.000000,1.046227 
	C167.551636,1.046227 334.103271,1.046227 501.000000,1.046227 
	C501.000000,61.687126 501.000000,122.374901 500.558929,183.705109 
	C499.452240,184.370468 498.786621,184.413437 498.121002,184.413452 
	C333.890442,184.416763 169.659851,184.418182 5.429282,184.400208 
	C3.952840,184.400040 2.476426,184.139160 1.000000,184.000000 
M161.182632,167.676910 
	C159.321121,169.433212 157.459595,171.189514 155.154556,173.364258 
	C220.020050,173.364258 283.955505,173.364258 348.568512,173.364258 
	C316.039581,143.010269 284.035553,113.146072 251.812561,83.077545 
	C221.571198,111.301582 191.630753,139.244781 161.182632,167.676910 
z"/>
<path fill="#FFFFFF" opacity="1.000000" stroke="none" 
	d="
M501.000000,318.000000 
	C501.000000,378.969177 501.000000,439.938324 501.000000,500.953735 
	C334.448425,500.953735 167.896851,500.953735 1.000000,500.953735 
	C1.000000,440.312866 1.000000,379.625092 1.441077,318.294891 
	C2.547759,317.629547 3.213364,317.586517 3.878970,317.586487 
	C168.109543,317.583191 332.340118,317.581848 496.570709,317.599823 
	C498.047150,317.600006 499.523560,317.860870 501.000000,318.000000 
M305.391479,368.888092 
	C319.669556,355.571106 333.947662,342.254150 348.681732,328.511902 
	C283.805786,328.511902 219.917175,328.511902 154.950729,328.511902 
	C187.576218,358.966461 219.526352,388.790588 251.816406,418.932037 
	C269.615448,402.304504 287.243683,385.836548 305.391479,368.888092 
z"/>
<path fill="#11466C" opacity="1.000000" stroke="none" 
	d="
M501.000000,317.531342 
	C499.523560,317.860870 498.047150,317.600006 496.570709,317.599823 
	C332.340118,317.581848 168.109543,317.583191 3.878970,317.586487 
	C3.213364,317.586517 2.547759,317.629547 1.441077,317.826233 
	C1.000000,273.645782 1.000000,229.291550 1.000000,184.468658 
	C2.476426,184.139160 3.952840,184.400040 5.429282,184.400208 
	C169.659851,184.418182 333.890442,184.416763 498.121002,184.413452 
	C498.786621,184.413437 499.452240,184.370468 500.558929,184.173767 
	C501.000000,228.354233 501.000000,272.708466 501.000000,317.531342 
M313.875092,242.327698 
	C311.768066,250.937408 309.661041,259.547119 307.554016,268.156830 
	C307.200562,268.171173 306.847137,268.185516 306.493683,268.199860 
	C302.829956,253.863480 299.166229,239.527115 295.530548,225.300507 
	C291.064911,225.300507 287.014435,225.300507 282.440948,225.300507 
	C288.480164,244.158112 294.380768,262.582886 300.212616,280.792969 
	C305.106140,280.792969 309.406006,280.792969 313.735138,280.792969 
	C317.339142,266.416443 320.895355,252.230667 324.451538,238.044891 
	C324.802734,238.066162 325.153931,238.087448 325.505157,238.108734 
	C329.036865,252.365005 332.568573,266.621277 336.078461,280.789490 
	C340.779633,280.789490 345.072144,280.789490 349.534027,280.789490 
	C355.452301,262.237427 361.323822,243.832016 367.281555,225.156250 
	C362.789581,225.156250 358.988312,225.156250 354.944519,225.156250 
	C351.196381,239.883301 347.470947,254.521179 343.384521,270.577332 
	C341.259979,261.870483 339.508667,254.613068 337.715271,247.366089 
	C335.883545,239.964218 334.010406,232.572586 332.144226,225.131927 
	C327.332428,225.131927 322.860107,225.131927 317.997009,225.131927 
	C316.668304,230.589294 315.339661,236.046326 313.875092,242.327698 
M402.259216,232.837265 
	C407.591461,236.010788 405.783905,241.106720 406.073944,245.216980 
	C398.492310,246.490692 391.217834,247.239944 384.208557,249.028519 
	C377.700134,250.689240 373.169617,255.093338 371.937469,262.067322 
	C370.423065,270.638977 373.604675,277.037933 380.766754,280.178314 
	C389.554962,284.031738 400.622131,281.906189 406.067688,274.896515 
	C406.692230,277.053009 407.212738,278.850250 407.776611,280.797211 
	C411.436768,280.797211 415.036682,280.797211 418.722961,280.797211 
	C418.476746,275.813995 418.110962,271.043823 418.033997,266.268982 
	C417.899811,257.941315 418.122162,249.605347 417.868134,241.282837 
	C417.537384,230.446899 412.856201,225.125015 402.145294,223.460037 
	C398.740509,222.930786 395.115692,222.892120 391.716095,223.424423 
	C380.674072,225.153397 374.105225,232.194550 374.227936,241.745285 
	C377.824799,241.745285 381.421112,241.745285 384.930695,241.745285 
	C388.289307,232.086365 391.545349,230.293549 402.259216,232.837265 
M204.033020,248.701965 
	C202.665497,226.773300 182.085876,215.626984 164.108276,227.364838 
	C153.452759,234.322006 150.950272,245.146301 151.851944,257.116913 
	C153.433716,278.117065 174.902420,289.056000 192.928467,278.014160 
	C198.537338,274.578430 201.943512,269.641785 203.123535,262.581665 
	C199.716583,262.581665 196.894775,262.411713 194.112427,262.668671 
	C193.058060,262.766052 191.667465,263.607635 191.156586,264.517822 
	C186.699142,272.458923 181.309357,275.114288 173.743591,272.861542 
	C167.552628,271.018188 163.572174,263.898621 164.495743,255.872513 
	C177.534058,255.872513 190.619583,255.872513 204.072357,255.872513 
	C204.072357,253.552475 204.072357,251.590958 204.033020,248.701965 
M74.171173,232.367493 
	C64.143768,222.051437 48.838093,219.728836 36.745472,227.077942 
	C25.880405,233.681046 23.172073,244.242142 24.093023,256.027924 
	C24.945541,266.937958 29.835802,275.681213 40.377609,279.746063 
	C51.092686,283.877686 61.780529,283.243164 70.998184,275.650940 
	C82.685905,266.024200 84.177765,246.464264 74.171173,232.367493 
M428.104553,224.997681 
	C423.899628,225.413315 427.055237,227.882874 427.388885,228.764648 
	C433.797180,245.699356 440.409302,262.556854 446.951813,279.440948 
	C449.497620,286.010681 445.098236,293.202118 438.081390,293.971893 
	C436.327362,294.164337 434.557190,294.209625 432.946411,294.312805 
	C432.946411,297.390717 432.946411,299.971252 432.946411,302.478394 
	C444.304993,304.094788 450.845734,300.994873 456.053955,291.507050 
	C457.646271,288.606354 458.953522,285.526917 460.154510,282.437286 
	C466.594696,265.869843 472.959900,249.273224 479.351349,232.686813 
	C480.286926,230.258820 481.224152,227.831436 482.318390,224.994766 
	C479.172180,224.994766 476.646759,225.257721 474.199829,224.931732 
	C470.724152,224.468689 469.128265,225.805115 468.271088,229.138153 
	C467.072968,233.796951 465.417084,238.339508 463.918945,242.919327 
	C460.873932,252.228027 457.803345,261.528351 454.346558,272.038513 
	C448.905121,255.524033 443.882904,240.281845 438.845978,224.995010 
	C435.293457,224.995010 432.134949,224.995010 428.104553,224.997681 
M141.264999,274.416809 
	C141.194672,263.094666 141.310608,251.767319 140.995468,240.451996 
	C140.740601,231.300797 135.822083,225.542740 126.814278,223.739471 
	C117.438370,221.862518 108.824791,222.852951 103.158264,232.714355 
	C102.997452,229.511490 102.876221,227.097000 102.760925,224.800827 
	C98.688545,224.800827 95.107880,224.800827 91.500984,224.800827 
	C91.500984,243.578201 91.500984,261.988556 91.500984,280.633057 
	C95.358627,280.633057 98.931503,280.633057 103.007324,280.633057 
	C103.007324,271.639526 102.621124,262.836609 103.153015,254.089539 
	C103.469139,248.890778 104.556473,243.505325 106.514091,238.699554 
	C108.919823,232.793686 114.592484,230.722733 121.115524,232.014572 
	C126.136108,233.008865 129.080139,236.343048 129.349243,242.970230 
	C129.788040,253.776611 129.640747,264.606537 129.761917,275.426300 
	C129.781464,277.171234 129.910721,278.914917 129.985672,280.579590 
	C134.013565,280.579590 137.436523,280.579590 141.265030,280.579590 
	C141.265030,278.663147 141.265030,277.026947 141.264999,274.416809 
M233.301193,251.501846 
	C233.856674,252.664474 234.380310,254.819748 234.972473,254.838730 
	C242.210129,255.070953 249.457870,254.989761 256.522400,254.989761 
	C256.522400,252.245850 256.522400,250.311005 256.522400,247.993774 
	C249.450317,247.993774 242.648102,247.899612 235.855270,248.109711 
	C234.979675,248.136810 234.152863,249.740829 233.301193,251.501846 
z"/>
<path fill="#F22D0D" opacity="1.000000" stroke="none" 
	d="
M161.436462,167.432434 
	C191.630753,139.244781 221.571198,111.301582 251.812561,83.077545 
	C284.035553,113.146072 316.039581,143.010269 348.568512,173.364258 
	C283.955505,173.364258 220.020050,173.364258 155.154556,173.364258 
	C157.459595,171.189514 159.321121,169.433212 161.436462,167.432434 
z"/>
<path fill="#F22D0D" opacity="1.000000" stroke="none" 
	d="
M305.131714,369.128357 
	C287.243683,385.836548 269.615448,402.304504 251.816406,418.932037 
	C219.526352,388.790588 187.576218,358.966461 154.950729,328.511902 
	C219.917175,328.511902 283.805786,328.511902 348.681732,328.511902 
	C333.947662,342.254150 319.669556,355.571106 305.131714,369.128357 
z"/>
<path fill="#FAFBFC" opacity="1.000000" stroke="none" 
	d="
M313.943054,241.915527 
	C315.339661,236.046326 316.668304,230.589294 317.997009,225.131927 
	C322.860107,225.131927 327.332428,225.131927 332.144226,225.131927 
	C334.010406,232.572586 335.883545,239.964218 337.715271,247.366089 
	C339.508667,254.613068 341.259979,261.870483 343.384521,270.577332 
	C347.470947,254.521179 351.196381,239.883301 354.944519,225.156250 
	C358.988312,225.156250 362.789581,225.156250 367.281555,225.156250 
	C361.323822,243.832016 355.452301,262.237427 349.534027,280.789490 
	C345.072144,280.789490 340.779633,280.789490 336.078461,280.789490 
	C332.568573,266.621277 329.036865,252.365005 325.505157,238.108734 
	C325.153931,238.087448 324.802734,238.066162 324.451538,238.044891 
	C320.895355,252.230667 317.339142,266.416443 313.735138,280.792969 
	C309.406006,280.792969 305.106140,280.792969 300.212616,280.792969 
	C294.380768,262.582886 288.480164,244.158112 282.440948,225.300507 
	C287.014435,225.300507 291.064911,225.300507 295.530548,225.300507 
	C299.166229,239.527115 302.829956,253.863480 306.493683,268.199860 
	C306.847137,268.185516 307.200562,268.171173 307.554016,268.156830 
	C309.661041,259.547119 311.768066,250.937408 313.943054,241.915527 
z"/>
<path fill="#F9FAFB" opacity="1.000000" stroke="none" 
	d="
M401.895630,232.625183 
	C391.545349,230.293549 388.289307,232.086365 384.930695,241.745285 
	C381.421112,241.745285 377.824799,241.745285 374.227936,241.745285 
	C374.105225,232.194550 380.674072,225.153397 391.716095,223.424423 
	C395.115692,222.892120 398.740509,222.930786 402.145294,223.460037 
	C412.856201,225.125015 417.537384,230.446899 417.868134,241.282837 
	C418.122162,249.605347 417.899811,257.941315 418.033997,266.268982 
	C418.110962,271.043823 418.476746,275.813995 418.722961,280.797211 
	C415.036682,280.797211 411.436768,280.797211 407.776611,280.797211 
	C407.212738,278.850250 406.692230,277.053009 406.067688,274.896515 
	C400.622131,281.906189 389.554962,284.031738 380.766754,280.178314 
	C373.604675,277.037933 370.423065,270.638977 371.937469,262.067322 
	C373.169617,255.093338 377.700134,250.689240 384.208557,249.028519 
	C391.217834,247.239944 398.492310,246.490692 406.073944,245.216980 
	C405.783905,241.106720 407.591461,236.010788 401.895630,232.625183 
M398.559753,272.707794 
	C406.663940,268.884583 406.475983,261.761292 405.980774,252.926682 
	C399.849945,254.214005 393.954803,254.851761 388.516815,256.779236 
	C383.982452,258.386414 383.208527,262.951263 384.148041,267.334198 
	C385.045715,271.522064 388.306824,273.147980 392.301971,273.321533 
	C394.109375,273.400055 395.934235,273.077301 398.559753,272.707794 
z"/>
<path fill="#FBFCFC" opacity="1.000000" stroke="none" 
	d="
M204.052689,249.165710 
	C204.072357,251.590958 204.072357,253.552475 204.072357,255.872513 
	C190.619583,255.872513 177.534058,255.872513 164.495743,255.872513 
	C163.572174,263.898621 167.552628,271.018188 173.743591,272.861542 
	C181.309357,275.114288 186.699142,272.458923 191.156586,264.517822 
	C191.667465,263.607635 193.058060,262.766052 194.112427,262.668671 
	C196.894775,262.411713 199.716583,262.581665 203.123535,262.581665 
	C201.943512,269.641785 198.537338,274.578430 192.928467,278.014160 
	C174.902420,289.056000 153.433716,278.117065 151.851944,257.116913 
	C150.950272,245.146301 153.452759,234.322006 164.108276,227.364838 
	C182.085876,215.626984 202.665497,226.773300 204.052689,249.165710 
M165.966766,247.908707 
	C174.588364,247.908707 183.209976,247.908707 191.824783,247.908707 
	C191.806839,239.008163 187.867828,233.048401 181.526581,231.880096 
	C174.155045,230.521942 167.970230,233.929611 165.412811,241.201187 
	C164.704330,243.215652 165.153870,245.637390 165.966766,247.908707 
z"/>
<path fill="#F9FAFB" opacity="1.000000" stroke="none" 
	d="
M74.399002,232.646835 
	C84.177765,246.464264 82.685905,266.024200 70.998184,275.650940 
	C61.780529,283.243164 51.092686,283.877686 40.377609,279.746063 
	C29.835802,275.681213 24.945541,266.937958 24.093023,256.027924 
	C23.172073,244.242142 25.880405,233.681046 36.745472,227.077942 
	C48.838093,219.728836 64.143768,222.051437 74.399002,232.646835 
M37.391834,243.263382 
	C35.494350,250.196075 35.528183,257.092896 38.209934,263.800873 
	C40.737732,270.123779 45.999348,273.568604 52.551949,273.410645 
	C59.260792,273.248932 64.615517,270.047668 66.076614,263.677277 
	C67.516327,257.400085 67.995354,250.522797 67.065231,244.177139 
	C65.881760,236.102982 60.277515,231.993362 53.112568,231.659500 
	C45.698723,231.314072 40.957966,234.672668 37.391834,243.263382 
z"/>
<path fill="#FAFBFC" opacity="1.000000" stroke="none" 
	d="
M428.540497,224.996338 
	C432.134949,224.995010 435.293457,224.995010 438.845978,224.995010 
	C443.882904,240.281845 448.905121,255.524033 454.346558,272.038513 
	C457.803345,261.528351 460.873932,252.228027 463.918945,242.919327 
	C465.417084,238.339508 467.072968,233.796951 468.271088,229.138153 
	C469.128265,225.805115 470.724152,224.468689 474.199829,224.931732 
	C476.646759,225.257721 479.172180,224.994766 482.318390,224.994766 
	C481.224152,227.831436 480.286926,230.258820 479.351349,232.686813 
	C472.959900,249.273224 466.594696,265.869843 460.154510,282.437286 
	C458.953522,285.526917 457.646271,288.606354 456.053955,291.507050 
	C450.845734,300.994873 444.304993,304.094788 432.946411,302.478394 
	C432.946411,299.971252 432.946411,297.390717 432.946411,294.312805 
	C434.557190,294.209625 436.327362,294.164337 438.081390,293.971893 
	C445.098236,293.202118 449.497620,286.010681 446.951813,279.440948 
	C440.409302,262.556854 433.797180,245.699356 427.388885,228.764648 
	C427.055237,227.882874 423.899628,225.413315 428.540497,224.996338 
z"/>
<path fill="#F8FAFB" opacity="1.000000" stroke="none" 
	d="
M141.265015,274.903748 
	C141.265030,277.026947 141.265030,278.663147 141.265030,280.579590 
	C137.436523,280.579590 134.013565,280.579590 129.985672,280.579590 
	C129.910721,278.914917 129.781464,277.171234 129.761917,275.426300 
	C129.640747,264.606537 129.788040,253.776611 129.349243,242.970230 
	C129.080139,236.343048 126.136108,233.008865 121.115524,232.014572 
	C114.592484,230.722733 108.919823,232.793686 106.514091,238.699554 
	C104.556473,243.505325 103.469139,248.890778 103.153015,254.089539 
	C102.621124,262.836609 103.007324,271.639526 103.007324,280.633057 
	C98.931503,280.633057 95.358627,280.633057 91.500984,280.633057 
	C91.500984,261.988556 91.500984,243.578201 91.500984,224.800827 
	C95.107880,224.800827 98.688545,224.800827 102.760925,224.800827 
	C102.876221,227.097000 102.997452,229.511490 103.158264,232.714355 
	C108.824791,222.852951 117.438370,221.862518 126.814278,223.739471 
	C135.822083,225.542740 140.740601,231.300797 140.995468,240.451996 
	C141.310608,251.767319 141.194672,263.094666 141.265015,274.903748 
z"/>
<path fill="#F8FAFB" opacity="1.000000" stroke="none" 
	d="
M233.302307,251.058105 
	C234.152863,249.740829 234.979675,248.136810 235.855270,248.109711 
	C242.648102,247.899612 249.450317,247.993774 256.522400,247.993774 
	C256.522400,250.311005 256.522400,252.245850 256.522400,254.989761 
	C249.457870,254.989761 242.210129,255.070953 234.972473,254.838730 
	C234.380310,254.819748 233.856674,252.664474 233.302307,251.058105 
z"/>
<path fill="#12476C" opacity="1.000000" stroke="none" 
	d="
M398.155457,272.822205 
	C395.934235,273.077301 394.109375,273.400055 392.301971,273.321533 
	C388.306824,273.147980 385.045715,271.522064 384.148041,267.334198 
	C383.208527,262.951263 383.982452,258.386414 388.516815,256.779236 
	C393.954803,254.851761 399.849945,254.214005 405.980774,252.926682 
	C406.475983,261.761292 406.663940,268.884583 398.155457,272.822205 
z"/>
<path fill="#14496E" opacity="1.000000" stroke="none" 
	d="
M165.519440,247.890488 
	C165.153870,245.637390 164.704330,243.215652 165.412811,241.201187 
	C167.970230,233.929611 174.155045,230.521942 181.526581,231.880096 
	C187.867828,233.048401 191.806839,239.008163 191.824783,247.908707 
	C183.209976,247.908707 174.588364,247.908707 165.519440,247.890488 
z"/>
<path fill="#11466C" opacity="1.000000" stroke="none" 
	d="
M37.567886,242.905426 
	C40.957966,234.672668 45.698723,231.314072 53.112568,231.659500 
	C60.277515,231.993362 65.881760,236.102982 67.065231,244.177139 
	C67.995354,250.522797 67.516327,257.400085 66.076614,263.677277 
	C64.615517,270.047668 59.260792,273.248932 52.551949,273.410645 
	C45.999348,273.568604 40.737732,270.123779 38.209934,263.800873 
	C35.528183,257.092896 35.494350,250.196075 37.567886,242.905426 
z"/>
</svg>